<?xml version="1.0" standalone="no"?>
<!DOCTYPE svg PUBLIC "-//W3C//DTD SVG 1.1//EN"
  "http://www.w3.org/Graphics/SVG/1.1/DTD/svg11.dtd">
<!-- Created with matplotlib (http://matplotlib.sourceforge.net/) -->
<svg width="488pt" height="389pt" viewBox="0 0 488 389"
   xmlns="http://www.w3.org/2000/svg"
   xmlns:xlink="http://www.w3.org/1999/xlink"
   version="1.1"
   id="svg1">
<filter id="colorAdd"><feComposite in="SourceGraphic" in2="BackgroundImage" operator="arithmetic" k2="1" k3="1"/></filter>
<g id="figure1">
<g id="patch1">
<path style="fill: #ffffff; stroke: #ffffff; stroke-width: 1.000000; stroke-linejoin: round; stroke-linecap: square;  opacity: 1.000000"  d="M-0.000000 389.179687L488.112500 389.179687L488.112500 0.000000
L-0.000000 0.000000z"/>
</g>
<g id="axes1">
<g id="patch2">
<path style="fill: #ffffff; opacity: 1.000000"  d="M31.637500 357.339062L478.037500 357.339062L478.037500 11.739062
L31.637500 11.739062z"/>
</g>
<g id="line2d1">
<defs>
  <clipPath id="pe7cde69d57c01d444299f113b434c76e">
<rect x="31.637500" y="11.739062" width="446.400000" height="345.600000"/>
  </clipPath>
</defs><path style="fill: none; stroke: #ff0000; stroke-width: 1.000000; stroke-linejoin: round; stroke-linecap: square;  opacity: 1.000000" clip-path="url(#pe7cde69d57c01d444299f113b434c76e)" d="M31.637500 345.140845L114.304167 349.099653L162.563626 351.202587
L194.736599 352.392843L218.866329 353.069719L238.527590 353.406965
L256.401464 353.498206L274.275338 353.368891L293.936599 352.996352
L316.725788 352.333886L345.770833 351.256672L385.987050 349.527027
L446.311374 346.690290L478.037500 345.140845L478.037500 345.140845"/>
</g>
<g id="line2d2">
<path style="fill: none; stroke: #ffa500; stroke-width: 1.000000; stroke-linejoin: round; stroke-linecap: square;  opacity: 1.000000" clip-path="url(#pe7cde69d57c01d444299f113b434c76e)" d="M31.637500 317.780509L83.471734 326.017544L120.560023 331.698547
L148.264527 335.729972L170.160023 338.700072L188.033896 340.903744
L202.779842 342.503803L215.738401 343.687556L227.356419 344.521819
L237.633896 345.043872L247.464527 345.327623L257.295158 345.385182
L267.125788 345.213326L276.956419 344.821502L287.680743 344.166524
L299.298761 343.226853L312.257320 341.949358L327.003266 340.268849
L344.430293 338.055260L365.878941 335.096943L392.689752 331.162613
L427.096959 325.877909L473.122185 318.571404L478.037500 317.780509
L478.037500 317.780509"/>
</g>
<g id="line2d3">
<path style="fill: none; stroke: #b3ff00; stroke-width: 1.000000; stroke-linejoin: round; stroke-linecap: square;  opacity: 1.000000" clip-path="url(#pe7cde69d57c01d444299f113b434c76e)" d="M31.637500 284.000842L74.981644 297.061371L107.601464 306.667543
L133.071734 313.943214L153.179842 319.465188L169.713176 323.783791
L183.565428 327.180321L195.630293 329.910958L205.907770 332.015450
L215.291554 333.709573L223.781644 335.012464L231.378041 335.958922
L238.527590 336.633790L245.677140 337.077814L252.379842 337.270691
L259.082545 337.240897L265.785248 336.989410L272.487950 336.524264
L279.637500 335.808324L287.233896 334.822986L295.277140 333.558961
L304.214077 331.928960L314.044707 329.910958L325.215878 327.390701
L338.174437 324.235003L353.367230 320.300139L371.687950 315.314772
L394.030293 308.991633L421.734797 300.907236L457.035698 290.360992
L478.037500 284.000842L478.037500 284.000842"/>
</g>
<g id="line2d4">
<path style="fill: none; stroke: #08ff00; stroke-width: 1.000000; stroke-linejoin: round; stroke-linecap: square;  opacity: 1.000000" clip-path="url(#pe7cde69d57c01d444299f113b434c76e)" d="M31.637500 229.928976L73.194257 252.367559L104.920383 269.255089
L129.496959 282.092005L148.711374 291.889148L164.351014 299.627184
L177.309572 305.803968L188.480743 310.888110L197.864527 314.924383
L206.354617 318.332495L213.504167 320.973009L220.206869 323.211612
L226.015878 324.928524L231.378041 326.297858L236.740203 327.430993
L241.655518 328.238528L246.570833 328.805472L251.039302 329.099785
L255.507770 329.176590L259.976239 329.034118L264.444707 328.675637
L268.913176 328.109094L273.828491 327.259742L278.743806 326.192374
L284.105968 324.804649L289.914977 323.070462L296.170833 320.973009
L303.320383 318.332495L311.363626 315.110089L320.300563 311.282806
L330.578041 306.634431L342.642905 300.925340L356.942005 293.902912
L373.922185 285.309876L394.923986 274.422290L420.841104 260.727026
L453.907770 242.991635L478.037500 229.928976L478.037500 229.928976"/>
</g>
<g id="line2d5">
<path style="fill: none; stroke: #00ff9d; stroke-width: 1.000000; stroke-linejoin: round; stroke-linecap: square;  opacity: 1.000000" clip-path="url(#pe7cde69d57c01d444299f113b434c76e)" d="M31.637500 24.328336L92.408671 113.724720L131.284347 170.541818
L157.648311 208.704460L176.415878 235.508090L190.714977 255.557840
L201.439302 270.234656L209.929392 281.501634L217.078941 290.621154
L222.887950 297.668477L227.803266 303.275598L231.824887 307.538027
L235.399662 311.010345L238.527590 313.745517L241.208671 315.819931
L243.889752 317.603665L246.123986 318.838706L248.358221 319.820891
L250.592455 320.529973L252.379842 320.889687L254.167230 321.058774
L255.954617 321.034571L257.742005 320.817461L259.529392 320.410847
L261.763626 319.645704L263.997860 318.611223L266.232095 317.328291
L268.913176 315.493289L271.594257 313.374325L274.722185 310.595081
L278.296959 307.081525L282.318581 302.782296L286.787050 297.668477
L292.149212 291.176434L298.405068 283.241627L306.001464 273.236078
L315.385248 260.493207L327.003266 244.331836L342.196059 222.796651
L362.304167 193.880220L389.561824 154.263531L427.543806 98.641995
L478.037500 24.328336L478.037500 24.328336"/>
</g>
<g id="line2d6">
<path style="fill: none; stroke: #00b5ff; stroke-width: 1.000000; stroke-linejoin: round; stroke-linecap: square;  opacity: 1.000000" clip-path="url(#pe7cde69d57c01d444299f113b434c76e)" d="M212.163626 351.246123L212.610473 348.543037L213.057320 346.513510
L213.951014 343.354546L215.291554 339.733650L216.632095 336.832440
L218.419482 333.632131L220.206869 330.943280L221.994257 328.621859
L224.228491 326.112930L226.462725 323.949337L228.696959 322.067471
L231.378041 320.121344L234.059122 318.467726L236.740203 317.070566
L239.421284 315.903912L242.102365 314.948729L245.230293 314.083103
L248.358221 313.470427L251.486149 313.100191L254.614077 312.966326
L257.742005 313.066687L260.869932 313.402880L263.997860 313.980389
L267.125788 314.809045L269.806869 315.730463L272.487950 316.860703
L275.169032 318.217861L277.850113 319.826557L280.531194 321.720858
L282.765428 323.552033L284.999662 325.655011L287.233896 328.088357
L289.021284 330.332435L290.808671 332.919117L292.596059 335.972470
L293.936599 338.704922L295.277140 342.038138L296.170833 344.825411
L297.064527 348.543037L297.511374 351.246123L297.511374 351.246123"/>
</g>
<g id="line2d7">
<path style="fill: none; stroke: #0010ff; stroke-width: 1.000000; stroke-linejoin: round; stroke-linecap: square;  opacity: 1.000000" clip-path="url(#pe7cde69d57c01d444299f113b434c76e)" d="M185.799662 352.718257L186.246509 349.814876L187.140203 346.094083
L188.033896 343.361585L189.374437 340.104416L190.714977 337.423354
L192.502365 334.399292L194.289752 331.801498L196.523986 328.976535
L198.758221 326.501189L201.439302 323.883596L204.120383 321.571493
L207.248311 319.186386L210.376239 317.080959L213.951014 314.963966
L217.525788 313.113181L221.100563 311.496351L225.122185 309.927390
L229.143806 308.598601L233.165428 307.490775L237.633896 306.501535
L242.102365 305.752635L246.570833 305.233710L251.039302 304.937929
L255.507770 304.861517L259.976239 305.003514L264.444707 305.365709
L268.913176 305.952760L273.381644 306.772496L277.850113 307.836476
L281.871734 309.016142L285.893356 310.422577L289.914977 312.076917
L293.489752 313.778290L297.064527 315.724571L300.192455 317.656677
L303.320383 319.837090L306.448311 322.312150L309.129392 324.718729
L311.810473 327.455208L314.044707 330.058785L316.278941 333.056186
L318.066329 335.847385L319.406869 338.269096L320.747410 341.110252
L321.641104 343.361585L322.534797 346.094083L323.428491 349.814876
L323.875338 352.718257L323.875338 352.718257"/>
</g>
<g id="line2d8">
<path style="fill: none; stroke: #9b00ff; stroke-width: 1.000000; stroke-linejoin: round; stroke-linecap: square;  opacity: 1.000000" clip-path="url(#pe7cde69d57c01d444299f113b434c76e)" d="M164.351014 352.324978L164.797860 349.525094L165.691554 345.834334
L166.585248 343.093072L167.925788 339.803417L169.266329 337.079516
L171.053716 333.988964L172.841104 331.316764L175.075338 328.389528
L177.309572 325.802641L179.990653 323.039753L182.671734 320.570348
L185.799662 317.986895L189.374437 315.354864L192.949212 313.006533
L196.970833 310.650642L200.992455 308.555441L205.460923 306.494112
L209.929392 304.681721L214.844707 302.946010L219.760023 301.456167
L224.675338 300.192959L230.037500 299.056142L235.399662 298.157001
L240.761824 297.484826L246.123986 297.032027L251.486149 296.793680
L256.848311 296.767255L262.210473 296.952473L267.572635 297.351295
L272.934797 297.968025L278.296959 298.809552L283.659122 299.885751
L288.574437 301.089872L293.489752 302.516209L298.405068 304.182648
L302.873536 305.925524L307.342005 307.909123L311.363626 309.925071
L315.385248 312.189844L318.960023 314.443619L322.534797 316.963246
L325.662725 319.427510L328.790653 322.187214L331.471734 324.844611
L334.152815 327.847958L336.387050 330.698891L338.174437 333.287513
L339.961824 336.258019L341.302365 338.845997L342.642905 341.912583
L343.536599 344.387521L344.430293 347.500498L344.877140 349.525094
L345.323986 352.324978L345.323986 352.324978"/>
</g>
<g id="line2d9">
<path style="fill: none; stroke: #ff00bd; stroke-width: 1.000000; stroke-linejoin: round; stroke-linecap: square;  opacity: 1.000000" clip-path="url(#pe7cde69d57c01d444299f113b434c76e)" d="M144.689752 353.119607L145.136599 349.864560L146.030293 345.870290
L146.923986 342.966228L148.264527 339.506892L149.605068 336.650862
L151.392455 333.411620L153.179842 330.607665L155.414077 327.528955
L157.648311 324.799101L160.329392 321.870896L163.457320 318.825657
L166.585248 316.095977L170.160023 313.287738L173.734797 310.754265
L177.756419 308.179797L181.778041 305.855181L186.246509 303.526032
L191.161824 301.234268L196.077140 299.193289L201.439302 297.222848
L206.801464 295.494855L212.163626 293.989468L217.972635 292.591881
L223.781644 291.421888L229.590653 290.467541L235.846509 289.670528
L242.102365 289.104665L248.358221 288.764230L254.614077 288.645870
L260.869932 288.748436L267.125788 289.072925L273.381644 289.622526
L279.637500 290.402783L285.446509 291.340953L291.255518 292.493973
L297.064527 293.873554L302.873536 295.494855L308.235698 297.222848
L313.597860 299.193289L318.513176 301.234268L323.428491 303.526032
L327.896959 305.855181L331.918581 308.179797L335.940203 310.754265
L339.514977 313.287738L343.089752 316.095977L346.217680 318.825657
L349.345608 321.870896L352.026689 324.799101L354.260923 327.528955
L356.495158 330.607665L358.282545 333.411620L360.069932 336.650862
L361.410473 339.506892L362.751014 342.966228L363.644707 345.870290
L364.538401 349.864560L364.985248 353.119607L364.985248 353.119607"/>
</g>
<g id="line2d10">
<path style="fill: none; stroke: #ff0018; stroke-width: 1.000000; stroke-linejoin: round; stroke-linecap: square;  opacity: 1.000000" clip-path="url(#pe7cde69d57c01d444299f113b434c76e)" d="M126.369032 351.322004L126.815878 348.569031L127.262725 346.500241
L128.156419 343.261145L129.496959 339.501308L130.837500 336.436750
L132.624887 332.983041L134.412275 330.003089L136.646509 326.734919
L138.880743 323.836441L141.561824 320.723227L144.689752 317.477531
L147.817680 314.558065L151.392455 311.541216L154.967230 308.804601
L158.988851 306.005222L163.457320 303.188156L167.925788 300.635499
L172.841104 298.092272L177.756419 295.793085L183.118581 293.532274
L188.480743 291.503813L194.289752 289.544379L200.098761 287.812183
L206.354617 286.181882L212.610473 284.779426L219.313176 283.514922
L226.015878 282.484588L232.718581 281.678857L239.421284 281.090609
L246.123986 280.714834L252.826689 280.548413L259.976239 280.600150
L266.678941 280.863995L273.381644 281.338425L280.084347 282.027420
L286.787050 282.936940L293.489752 284.075197L299.745608 285.353483
L306.001464 286.851812L312.257320 288.584568L318.066329 290.419342
L323.875338 292.490421L329.237500 294.632125L334.599662 297.018680
L339.514977 299.447252L344.430293 302.137503L348.898761 304.844032
L352.920383 307.526761L356.942005 310.484892L360.516779 313.390360
L363.644707 316.190611L366.772635 319.287105L369.453716 322.236202
L372.134797 325.537114L374.369032 328.643693L376.156419 331.444675
L377.943806 334.637853L379.284347 337.402293L380.624887 340.655895
L381.518581 343.261145L382.412275 346.500241L382.859122 348.569031
L383.305968 351.322004L383.305968 351.322004"/>
</g>
<g id="matplotlib.axis1">
<g id="xtick1">
<g id="line2d11">
<path style="fill: none; stroke: #000000; stroke-width: 0.500000; stroke-linejoin: round; stroke-linecap: butt; stroke-dasharray: 1.000000,3.000000; stroke-dashoffset: 0.000000; opacity: 1.000000" clip-path="url(#pe7cde69d57c01d444299f113b434c76e)" d="M31.637500 357.339062L31.637500 11.739062"/>
</g>
<g id="line2d12">
<defs><path id="m30e32995789d870ad79a2e54c91cf9c6" d="M0.000000 0.000000L0.000000 -4.000000"/></defs>
<g ><use style="fill: none; stroke: #000000; stroke-width: 0.500000; stroke-linejoin: round; stroke-linecap: butt;  opacity: 1.000000" xlink:href="#m30e32995789d870ad79a2e54c91cf9c6" x="31.637500" y="357.339062"/>
</g></g>
<g id="line2d13">
<defs><path id="m9281cae24120827b11d5ea8a7ad3e96b" d="M0.000000 0.000000L0.000000 4.000000"/></defs>
<g ><use style="fill: none; stroke: #000000; stroke-width: 0.500000; stroke-linejoin: round; stroke-linecap: butt;  opacity: 1.000000" xlink:href="#m9281cae24120827b11d5ea8a7ad3e96b" x="31.637500" y="11.739062"/>
</g></g>
<g id="text1">
<defs>
<path id="c_6a8d56c819c37117ab4cf023bec22a5a" d="M10.593750 -35.500000l62.593750 0.000000l0.000000 8.296875l-62.593750 0.000000z"/>
<path id="c_3dcfa38a02242cb63ec6726c6e70be7a" d="M40.578125 -39.312500q7.078125 1.515625 11.046875 6.312500q3.984375 4.781250 3.984375 11.812500q0.000000 10.781250 -7.421875 16.703125q-7.421875 5.906250 -21.093750 5.906250q-4.578125 0.000000 -9.437500 -0.906250q-4.859375 -0.906250 -10.031250 -2.718750l0.000000 -9.515625q4.093750 2.390625 8.968750 3.609375q4.890625 1.218750 10.218750 1.218750q9.265625 0.000000 14.125000 -3.656250q4.859375 -3.656250 4.859375 -10.640625q0.000000 -6.453125 -4.515625 -10.078125q-4.515625 -3.640625 -12.562500 -3.640625l-8.500000 0.000000l0.000000 -8.109375l8.890625 0.000000q7.265625 0.000000 11.125000 -2.906250q3.859375 -2.906250 3.859375 -8.375000q0.000000 -5.609375 -3.984375 -8.609375q-3.968750 -3.015625 -11.390625 -3.015625q-4.062500 0.000000 -8.703125 0.890625q-4.640625 0.875000 -10.203125 2.718750l0.000000 -8.781250q5.625000 -1.562500 10.531250 -2.343750q4.906250 -0.781250 9.250000 -0.781250q11.234375 0.000000 17.765625 5.109375q6.546875 5.093750 6.546875 13.781250q0.000000 6.062500 -3.468750 10.234375q-3.468750 4.171875 -9.859375 5.781250"/>
</defs>
<g style="fill: #000000; opacity: 1.000000" transform="translate(23.903125,370.245312)scale(0.120000)">
<use xlink:href="#c_6a8d56c819c37117ab4cf023bec22a5a"/>
<use xlink:href="#c_3dcfa38a02242cb63ec6726c6e70be7a" x="83.789062"/>
</g>
</g>
</g>
<g id="xtick2">
<g id="line2d14">
<path style="fill: none; stroke: #000000; stroke-width: 0.500000; stroke-linejoin: round; stroke-linecap: butt; stroke-dasharray: 1.000000,3.000000; stroke-dashoffset: 0.000000; opacity: 1.000000" clip-path="url(#pe7cde69d57c01d444299f113b434c76e)" d="M106.037500 357.339062L106.037500 11.739062"/>
</g>
<g id="line2d15">
<g ><use style="fill: none; stroke: #000000; stroke-width: 0.500000; stroke-linejoin: round; stroke-linecap: butt;  opacity: 1.000000" xlink:href="#m30e32995789d870ad79a2e54c91cf9c6" x="106.037500" y="357.339062"/>
</g></g>
<g id="line2d16">
<g ><use style="fill: none; stroke: #000000; stroke-width: 0.500000; stroke-linejoin: round; stroke-linecap: butt;  opacity: 1.000000" xlink:href="#m9281cae24120827b11d5ea8a7ad3e96b" x="106.037500" y="11.739062"/>
</g></g>
<g id="text2">
<defs>
<path id="c_ed3f3ed3ebfbd18bcb9c012009a68ad1" d="M19.187500 -8.296875l34.421875 0.000000l0.000000 8.296875l-46.281250 0.000000l0.000000 -8.296875q5.609375 -5.812500 15.296875 -15.593750q9.703125 -9.796875 12.187500 -12.640625q4.734375 -5.312500 6.609375 -9.000000q1.890625 -3.687500 1.890625 -7.250000q0.000000 -5.812500 -4.078125 -9.468750q-4.078125 -3.671875 -10.625000 -3.671875q-4.640625 0.000000 -9.796875 1.609375q-5.140625 1.609375 -11.000000 4.890625l0.000000 -9.968750q5.953125 -2.390625 11.125000 -3.609375q5.187500 -1.218750 9.484375 -1.218750q11.328125 0.000000 18.062500 5.671875q6.734375 5.656250 6.734375 15.125000q0.000000 4.500000 -1.687500 8.531250q-1.671875 4.015625 -6.125000 9.484375q-1.218750 1.421875 -7.765625 8.187500q-6.531250 6.765625 -18.453125 18.921875"/>
</defs>
<g style="fill: #000000; opacity: 1.000000" transform="translate(98.420312,370.245312)scale(0.120000)">
<use xlink:href="#c_6a8d56c819c37117ab4cf023bec22a5a"/>
<use xlink:href="#c_ed3f3ed3ebfbd18bcb9c012009a68ad1" x="83.789062"/>
</g>
</g>
</g>
<g id="xtick3">
<g id="line2d17">
<path style="fill: none; stroke: #000000; stroke-width: 0.500000; stroke-linejoin: round; stroke-linecap: butt; stroke-dasharray: 1.000000,3.000000; stroke-dashoffset: 0.000000; opacity: 1.000000" clip-path="url(#pe7cde69d57c01d444299f113b434c76e)" d="M180.437500 357.339062L180.437500 11.739062"/>
</g>
<g id="line2d18">
<g ><use style="fill: none; stroke: #000000; stroke-width: 0.500000; stroke-linejoin: round; stroke-linecap: butt;  opacity: 1.000000" xlink:href="#m30e32995789d870ad79a2e54c91cf9c6" x="180.437500" y="357.339062"/>
</g></g>
<g id="line2d19">
<g ><use style="fill: none; stroke: #000000; stroke-width: 0.500000; stroke-linejoin: round; stroke-linecap: butt;  opacity: 1.000000" xlink:href="#m9281cae24120827b11d5ea8a7ad3e96b" x="180.437500" y="11.739062"/>
</g></g>
<g id="text3">
<defs>
<path id="c_42baa63129a918535c52adb20d687ea7" d="M12.406250 -8.296875l16.109375 0.000000l0.000000 -55.625000l-17.531250 3.515625l0.000000 -8.984375l17.437500 -3.515625l9.859375 0.000000l0.000000 64.609375l16.109375 0.000000l0.000000 8.296875l-41.984375 0.000000z"/>
</defs>
<g style="fill: #000000; opacity: 1.000000" transform="translate(172.773438,370.089062)scale(0.120000)">
<use xlink:href="#c_6a8d56c819c37117ab4cf023bec22a5a"/>
<use xlink:href="#c_42baa63129a918535c52adb20d687ea7" x="83.789062"/>
</g>
</g>
</g>
<g id="xtick4">
<g id="line2d20">
<path style="fill: none; stroke: #000000; stroke-width: 0.500000; stroke-linejoin: round; stroke-linecap: butt; stroke-dasharray: 1.000000,3.000000; stroke-dashoffset: 0.000000; opacity: 1.000000" clip-path="url(#pe7cde69d57c01d444299f113b434c76e)" d="M254.837500 357.339062L254.837500 11.739062"/>
</g>
<g id="line2d21">
<g ><use style="fill: none; stroke: #000000; stroke-width: 0.500000; stroke-linejoin: round; stroke-linecap: butt;  opacity: 1.000000" xlink:href="#m30e32995789d870ad79a2e54c91cf9c6" x="254.837500" y="357.339062"/>
</g></g>
<g id="line2d22">
<g ><use style="fill: none; stroke: #000000; stroke-width: 0.500000; stroke-linejoin: round; stroke-linecap: butt;  opacity: 1.000000" xlink:href="#m9281cae24120827b11d5ea8a7ad3e96b" x="254.837500" y="11.739062"/>
</g></g>
<g id="text4">
<defs>
<path id="c_7a2040fe3b94fcd41d0a72c84e93b115" d="M31.781250 -66.406250q-7.609375 0.000000 -11.453125 7.500000q-3.828125 7.484375 -3.828125 22.531250q0.000000 14.984375 3.828125 22.484375q3.843750 7.500000 11.453125 7.500000q7.671875 0.000000 11.500000 -7.500000q3.843750 -7.500000 3.843750 -22.484375q0.000000 -15.046875 -3.843750 -22.531250q-3.828125 -7.500000 -11.500000 -7.500000M31.781250 -74.218750q12.265625 0.000000 18.734375 9.703125q6.468750 9.687500 6.468750 28.140625q0.000000 18.406250 -6.468750 28.109375q-6.468750 9.687500 -18.734375 9.687500q-12.250000 0.000000 -18.718750 -9.687500q-6.468750 -9.703125 -6.468750 -28.109375q0.000000 -18.453125 6.468750 -28.140625q6.468750 -9.703125 18.718750 -9.703125"/>
</defs>
<g style="fill: #000000; opacity: 1.000000" transform="translate(251.814063,370.245312)scale(0.120000)">
<use xlink:href="#c_7a2040fe3b94fcd41d0a72c84e93b115"/>
</g>
</g>
</g>
<g id="xtick5">
<g id="line2d23">
<path style="fill: none; stroke: #000000; stroke-width: 0.500000; stroke-linejoin: round; stroke-linecap: butt; stroke-dasharray: 1.000000,3.000000; stroke-dashoffset: 0.000000; opacity: 1.000000" clip-path="url(#pe7cde69d57c01d444299f113b434c76e)" d="M329.237500 357.339062L329.237500 11.739062"/>
</g>
<g id="line2d24">
<g ><use style="fill: none; stroke: #000000; stroke-width: 0.500000; stroke-linejoin: round; stroke-linecap: butt;  opacity: 1.000000" xlink:href="#m30e32995789d870ad79a2e54c91cf9c6" x="329.237500" y="357.339062"/>
</g></g>
<g id="line2d25">
<g ><use style="fill: none; stroke: #000000; stroke-width: 0.500000; stroke-linejoin: round; stroke-linecap: butt;  opacity: 1.000000" xlink:href="#m9281cae24120827b11d5ea8a7ad3e96b" x="329.237500" y="11.739062"/>
</g></g>
<g id="text5">
<g style="fill: #000000; opacity: 1.000000" transform="translate(326.628125,370.089062)scale(0.120000)">
<use xlink:href="#c_42baa63129a918535c52adb20d687ea7"/>
</g>
</g>
</g>
<g id="xtick6">
<g id="line2d26">
<path style="fill: none; stroke: #000000; stroke-width: 0.500000; stroke-linejoin: round; stroke-linecap: butt; stroke-dasharray: 1.000000,3.000000; stroke-dashoffset: 0.000000; opacity: 1.000000" clip-path="url(#pe7cde69d57c01d444299f113b434c76e)" d="M403.637500 357.339062L403.637500 11.739062"/>
</g>
<g id="line2d27">
<g ><use style="fill: none; stroke: #000000; stroke-width: 0.500000; stroke-linejoin: round; stroke-linecap: butt;  opacity: 1.000000" xlink:href="#m30e32995789d870ad79a2e54c91cf9c6" x="403.637500" y="357.339062"/>
</g></g>
<g id="line2d28">
<g ><use style="fill: none; stroke: #000000; stroke-width: 0.500000; stroke-linejoin: round; stroke-linecap: butt;  opacity: 1.000000" xlink:href="#m9281cae24120827b11d5ea8a7ad3e96b" x="403.637500" y="11.739062"/>
</g></g>
<g id="text6">
<g style="fill: #000000; opacity: 1.000000" transform="translate(400.856250,370.245312)scale(0.120000)">
<use xlink:href="#c_ed3f3ed3ebfbd18bcb9c012009a68ad1"/>
</g>
</g>
</g>
<g id="xtick7">
<g id="line2d29">
<path style="fill: none; stroke: #000000; stroke-width: 0.500000; stroke-linejoin: round; stroke-linecap: butt; stroke-dasharray: 1.000000,3.000000; stroke-dashoffset: 0.000000; opacity: 1.000000" clip-path="url(#pe7cde69d57c01d444299f113b434c76e)" d="M478.037500 357.339062L478.037500 11.739062"/>
</g>
<g id="line2d30">
<g ><use style="fill: none; stroke: #000000; stroke-width: 0.500000; stroke-linejoin: round; stroke-linecap: butt;  opacity: 1.000000" xlink:href="#m30e32995789d870ad79a2e54c91cf9c6" x="478.037500" y="357.339062"/>
</g></g>
<g id="line2d31">
<g ><use style="fill: none; stroke: #000000; stroke-width: 0.500000; stroke-linejoin: round; stroke-linecap: butt;  opacity: 1.000000" xlink:href="#m9281cae24120827b11d5ea8a7ad3e96b" x="478.037500" y="11.739062"/>
</g></g>
<g id="text7">
<g style="fill: #000000; opacity: 1.000000" transform="translate(475.162500,370.245312)scale(0.120000)">
<use xlink:href="#c_3dcfa38a02242cb63ec6726c6e70be7a"/>
</g>
</g>
</g>
<g id="text8">
<defs>
<path id="c_801fe2e877fad46da27c898b407b3b54" d="M54.890625 -54.687500l-19.781250 26.609375l20.796875 28.078125l-10.593750 0.000000l-15.921875 -21.484375l-15.906250 21.484375l-10.609375 0.000000l21.250000 -28.609375l-19.437500 -26.078125l10.593750 0.000000l14.500000 19.484375l14.500000 -19.484375z"/>
</defs>
<g style="fill: #000000; opacity: 1.000000" transform="translate(251.657813,381.979687)scale(0.120000)">
<use xlink:href="#c_801fe2e877fad46da27c898b407b3b54"/>
</g>
</g>
</g>
<g id="matplotlib.axis2">
<g id="ytick1">
<g id="line2d32">
<path style="fill: none; stroke: #000000; stroke-width: 0.500000; stroke-linejoin: round; stroke-linecap: butt; stroke-dasharray: 1.000000,3.000000; stroke-dashoffset: 0.000000; opacity: 1.000000" clip-path="url(#pe7cde69d57c01d444299f113b434c76e)" d="M31.637500 357.339062L478.037500 357.339062"/>
</g>
<g id="line2d33">
<defs><path id="m3400efa6b1638b3fea9e19e898273957" d="M0.000000 0.000000L4.000000 0.000000"/></defs>
<g ><use style="fill: none; stroke: #000000; stroke-width: 0.500000; stroke-linejoin: round; stroke-linecap: butt;  opacity: 1.000000" xlink:href="#m3400efa6b1638b3fea9e19e898273957" x="31.637500" y="357.339062"/>
</g></g>
<g id="line2d34">
<defs><path id="m20b58b2501143cb5e0a5e8f1ef6f1643" d="M0.000000 0.000000L-4.000000 0.000000"/></defs>
<g ><use style="fill: none; stroke: #000000; stroke-width: 0.500000; stroke-linejoin: round; stroke-linecap: butt;  opacity: 1.000000" xlink:href="#m20b58b2501143cb5e0a5e8f1ef6f1643" x="478.037500" y="357.339062"/>
</g></g>
<g id="text9">
<g style="fill: #000000; opacity: 1.000000" transform="translate(21.590625,361.706250)scale(0.120000)">
<use xlink:href="#c_7a2040fe3b94fcd41d0a72c84e93b115"/>
</g>
</g>
</g>
<g id="ytick2">
<g id="line2d35">
<path style="fill: none; stroke: #000000; stroke-width: 0.500000; stroke-linejoin: round; stroke-linecap: butt; stroke-dasharray: 1.000000,3.000000; stroke-dashoffset: 0.000000; opacity: 1.000000" clip-path="url(#pe7cde69d57c01d444299f113b434c76e)" d="M31.637500 318.939062L478.037500 318.939062"/>
</g>
<g id="line2d36">
<g ><use style="fill: none; stroke: #000000; stroke-width: 0.500000; stroke-linejoin: round; stroke-linecap: butt;  opacity: 1.000000" xlink:href="#m3400efa6b1638b3fea9e19e898273957" x="31.637500" y="318.939062"/>
</g></g>
<g id="line2d37">
<g ><use style="fill: none; stroke: #000000; stroke-width: 0.500000; stroke-linejoin: round; stroke-linecap: butt;  opacity: 1.000000" xlink:href="#m20b58b2501143cb5e0a5e8f1ef6f1643" x="478.037500" y="318.939062"/>
</g></g>
<g id="text10">
<g style="fill: #000000; opacity: 1.000000" transform="translate(22.418750,323.314062)scale(0.120000)">
<use xlink:href="#c_42baa63129a918535c52adb20d687ea7"/>
</g>
</g>
</g>
<g id="ytick3">
<g id="line2d38">
<path style="fill: none; stroke: #000000; stroke-width: 0.500000; stroke-linejoin: round; stroke-linecap: butt; stroke-dasharray: 1.000000,3.000000; stroke-dashoffset: 0.000000; opacity: 1.000000" clip-path="url(#pe7cde69d57c01d444299f113b434c76e)" d="M31.637500 280.539062L478.037500 280.539062"/>
</g>
<g id="line2d39">
<g ><use style="fill: none; stroke: #000000; stroke-width: 0.500000; stroke-linejoin: round; stroke-linecap: butt;  opacity: 1.000000" xlink:href="#m3400efa6b1638b3fea9e19e898273957" x="31.637500" y="280.539062"/>
</g></g>
<g id="line2d40">
<g ><use style="fill: none; stroke: #000000; stroke-width: 0.500000; stroke-linejoin: round; stroke-linecap: butt;  opacity: 1.000000" xlink:href="#m20b58b2501143cb5e0a5e8f1ef6f1643" x="478.037500" y="280.539062"/>
</g></g>
<g id="text11">
<g style="fill: #000000; opacity: 1.000000" transform="translate(22.075000,284.992187)scale(0.120000)">
<use xlink:href="#c_ed3f3ed3ebfbd18bcb9c012009a68ad1"/>
</g>
</g>
</g>
<g id="ytick4">
<g id="line2d41">
<path style="fill: none; stroke: #000000; stroke-width: 0.500000; stroke-linejoin: round; stroke-linecap: butt; stroke-dasharray: 1.000000,3.000000; stroke-dashoffset: 0.000000; opacity: 1.000000" clip-path="url(#pe7cde69d57c01d444299f113b434c76e)" d="M31.637500 242.139062L478.037500 242.139062"/>
</g>
<g id="line2d42">
<g ><use style="fill: none; stroke: #000000; stroke-width: 0.500000; stroke-linejoin: round; stroke-linecap: butt;  opacity: 1.000000" xlink:href="#m3400efa6b1638b3fea9e19e898273957" x="31.637500" y="242.139062"/>
</g></g>
<g id="line2d43">
<g ><use style="fill: none; stroke: #000000; stroke-width: 0.500000; stroke-linejoin: round; stroke-linecap: butt;  opacity: 1.000000" xlink:href="#m20b58b2501143cb5e0a5e8f1ef6f1643" x="478.037500" y="242.139062"/>
</g></g>
<g id="text12">
<g style="fill: #000000; opacity: 1.000000" transform="translate(21.887500,246.506250)scale(0.120000)">
<use xlink:href="#c_3dcfa38a02242cb63ec6726c6e70be7a"/>
</g>
</g>
</g>
<g id="ytick5">
<g id="line2d44">
<path style="fill: none; stroke: #000000; stroke-width: 0.500000; stroke-linejoin: round; stroke-linecap: butt; stroke-dasharray: 1.000000,3.000000; stroke-dashoffset: 0.000000; opacity: 1.000000" clip-path="url(#pe7cde69d57c01d444299f113b434c76e)" d="M31.637500 203.739062L478.037500 203.739062"/>
</g>
<g id="line2d45">
<g ><use style="fill: none; stroke: #000000; stroke-width: 0.500000; stroke-linejoin: round; stroke-linecap: butt;  opacity: 1.000000" xlink:href="#m3400efa6b1638b3fea9e19e898273957" x="31.637500" y="203.739062"/>
</g></g>
<g id="line2d46">
<g ><use style="fill: none; stroke: #000000; stroke-width: 0.500000; stroke-linejoin: round; stroke-linecap: butt;  opacity: 1.000000" xlink:href="#m20b58b2501143cb5e0a5e8f1ef6f1643" x="478.037500" y="203.739062"/>
</g></g>
<g id="text13">
<defs>
<path id="c_a0416418d96557a09b8c1332d34883ba" d="M37.796875 -64.312500l-24.906250 38.921875l24.906250 0.000000zM35.203125 -72.906250l12.406250 0.000000l0.000000 47.515625l10.406250 0.000000l0.000000 8.203125l-10.406250 0.000000l0.000000 17.187500l-9.812500 0.000000l0.000000 -17.187500l-32.906250 0.000000l0.000000 -9.515625z"/>
</defs>
<g style="fill: #000000; opacity: 1.000000" transform="translate(21.262500,208.114062)scale(0.120000)">
<use xlink:href="#c_a0416418d96557a09b8c1332d34883ba"/>
</g>
</g>
</g>
<g id="ytick6">
<g id="line2d47">
<path style="fill: none; stroke: #000000; stroke-width: 0.500000; stroke-linejoin: round; stroke-linecap: butt; stroke-dasharray: 1.000000,3.000000; stroke-dashoffset: 0.000000; opacity: 1.000000" clip-path="url(#pe7cde69d57c01d444299f113b434c76e)" d="M31.637500 165.339062L478.037500 165.339062"/>
</g>
<g id="line2d48">
<g ><use style="fill: none; stroke: #000000; stroke-width: 0.500000; stroke-linejoin: round; stroke-linecap: butt;  opacity: 1.000000" xlink:href="#m3400efa6b1638b3fea9e19e898273957" x="31.637500" y="165.339062"/>
</g></g>
<g id="line2d49">
<g ><use style="fill: none; stroke: #000000; stroke-width: 0.500000; stroke-linejoin: round; stroke-linecap: butt;  opacity: 1.000000" xlink:href="#m20b58b2501143cb5e0a5e8f1ef6f1643" x="478.037500" y="165.339062"/>
</g></g>
<g id="text14">
<defs>
<path id="c_1260a2df50f305f3db244e29828f968e" d="M10.796875 -72.906250l38.718750 0.000000l0.000000 8.312500l-29.687500 0.000000l0.000000 17.859375q2.140625 -0.734375 4.281250 -1.093750q2.156250 -0.359375 4.312500 -0.359375q12.203125 0.000000 19.328125 6.687500q7.140625 6.687500 7.140625 18.109375q0.000000 11.765625 -7.328125 18.296875q-7.328125 6.515625 -20.656250 6.515625q-4.593750 0.000000 -9.359375 -0.781250q-4.750000 -0.781250 -9.828125 -2.343750l0.000000 -9.921875q4.390625 2.390625 9.078125 3.562500q4.687500 1.171875 9.906250 1.171875q8.453125 0.000000 13.375000 -4.437500q4.937500 -4.437500 4.937500 -12.062500q0.000000 -7.609375 -4.937500 -12.046875q-4.921875 -4.453125 -13.375000 -4.453125q-3.953125 0.000000 -7.890625 0.875000q-3.921875 0.875000 -8.015625 2.734375z"/>
</defs>
<g style="fill: #000000; opacity: 1.000000" transform="translate(21.965625,169.628125)scale(0.120000)">
<use xlink:href="#c_1260a2df50f305f3db244e29828f968e"/>
</g>
</g>
</g>
<g id="ytick7">
<g id="line2d50">
<path style="fill: none; stroke: #000000; stroke-width: 0.500000; stroke-linejoin: round; stroke-linecap: butt; stroke-dasharray: 1.000000,3.000000; stroke-dashoffset: 0.000000; opacity: 1.000000" clip-path="url(#pe7cde69d57c01d444299f113b434c76e)" d="M31.637500 126.939062L478.037500 126.939062"/>
</g>
<g id="line2d51">
<g ><use style="fill: none; stroke: #000000; stroke-width: 0.500000; stroke-linejoin: round; stroke-linecap: butt;  opacity: 1.000000" xlink:href="#m3400efa6b1638b3fea9e19e898273957" x="31.637500" y="126.939062"/>
</g></g>
<g id="line2d52">
<g ><use style="fill: none; stroke: #000000; stroke-width: 0.500000; stroke-linejoin: round; stroke-linecap: butt;  opacity: 1.000000" xlink:href="#m20b58b2501143cb5e0a5e8f1ef6f1643" x="478.037500" y="126.939062"/>
</g></g>
<g id="text15">
<defs>
<path id="c_cc8d6d580d1b10c8632f7a42cd53db8a" d="M33.015625 -40.375000q-6.640625 0.000000 -10.531250 4.546875q-3.875000 4.531250 -3.875000 12.437500q0.000000 7.859375 3.875000 12.437500q3.890625 4.562500 10.531250 4.562500q6.640625 0.000000 10.515625 -4.562500q3.875000 -4.578125 3.875000 -12.437500q0.000000 -7.906250 -3.875000 -12.437500q-3.875000 -4.546875 -10.515625 -4.546875M52.593750 -71.296875l0.000000 8.984375q-3.718750 -1.750000 -7.500000 -2.671875q-3.781250 -0.937500 -7.500000 -0.937500q-9.765625 0.000000 -14.921875 6.593750q-5.140625 6.593750 -5.875000 19.921875q2.875000 -4.250000 7.218750 -6.515625q4.359375 -2.265625 9.578125 -2.265625q10.984375 0.000000 17.359375 6.671875q6.375000 6.656250 6.375000 18.125000q0.000000 11.234375 -6.640625 18.031250q-6.640625 6.781250 -17.671875 6.781250q-12.656250 0.000000 -19.343750 -9.687500q-6.687500 -9.703125 -6.687500 -28.109375q0.000000 -17.281250 8.203125 -27.562500q8.203125 -10.281250 22.015625 -10.281250q3.718750 0.000000 7.500000 0.734375q3.781250 0.734375 7.890625 2.187500"/>
</defs>
<g style="fill: #000000; opacity: 1.000000" transform="translate(21.606250,131.306250)scale(0.120000)">
<use xlink:href="#c_cc8d6d580d1b10c8632f7a42cd53db8a"/>
</g>
</g>
</g>
<g id="ytick8">
<g id="line2d53">
<path style="fill: none; stroke: #000000; stroke-width: 0.500000; stroke-linejoin: round; stroke-linecap: butt; stroke-dasharray: 1.000000,3.000000; stroke-dashoffset: 0.000000; opacity: 1.000000" clip-path="url(#pe7cde69d57c01d444299f113b434c76e)" d="M31.637500 88.539062L478.037500 88.539062"/>
</g>
<g id="line2d54">
<g ><use style="fill: none; stroke: #000000; stroke-width: 0.500000; stroke-linejoin: round; stroke-linecap: butt;  opacity: 1.000000" xlink:href="#m3400efa6b1638b3fea9e19e898273957" x="31.637500" y="88.539062"/>
</g></g>
<g id="line2d55">
<g ><use style="fill: none; stroke: #000000; stroke-width: 0.500000; stroke-linejoin: round; stroke-linecap: butt;  opacity: 1.000000" xlink:href="#m20b58b2501143cb5e0a5e8f1ef6f1643" x="478.037500" y="88.539062"/>
</g></g>
<g id="text16">
<defs>
<path id="c_956f18cfdaf972f35a6c2b4aaac2532b" d="M8.203125 -72.906250l46.875000 0.000000l0.000000 4.203125l-26.468750 68.703125l-10.296875 0.000000l24.906250 -64.593750l-35.015625 0.000000z"/>
</defs>
<g style="fill: #000000; opacity: 1.000000" transform="translate(22.012500,92.914062)scale(0.120000)">
<use xlink:href="#c_956f18cfdaf972f35a6c2b4aaac2532b"/>
</g>
</g>
</g>
<g id="ytick9">
<g id="line2d56">
<path style="fill: none; stroke: #000000; stroke-width: 0.500000; stroke-linejoin: round; stroke-linecap: butt; stroke-dasharray: 1.000000,3.000000; stroke-dashoffset: 0.000000; opacity: 1.000000" clip-path="url(#pe7cde69d57c01d444299f113b434c76e)" d="M31.637500 50.139062L478.037500 50.139062"/>
</g>
<g id="line2d57">
<g ><use style="fill: none; stroke: #000000; stroke-width: 0.500000; stroke-linejoin: round; stroke-linecap: butt;  opacity: 1.000000" xlink:href="#m3400efa6b1638b3fea9e19e898273957" x="31.637500" y="50.139062"/>
</g></g>
<g id="line2d58">
<g ><use style="fill: none; stroke: #000000; stroke-width: 0.500000; stroke-linejoin: round; stroke-linecap: butt;  opacity: 1.000000" xlink:href="#m20b58b2501143cb5e0a5e8f1ef6f1643" x="478.037500" y="50.139062"/>
</g></g>
<g id="text17">
<defs>
<path id="c_bef35738d52871942e50b9de9b122bab" d="M31.781250 -34.625000q-7.031250 0.000000 -11.062500 3.765625q-4.015625 3.765625 -4.015625 10.343750q0.000000 6.593750 4.015625 10.359375q4.031250 3.765625 11.062500 3.765625q7.031250 0.000000 11.078125 -3.781250q4.062500 -3.796875 4.062500 -10.343750q0.000000 -6.578125 -4.031250 -10.343750q-4.015625 -3.765625 -11.109375 -3.765625M21.921875 -38.812500q-6.343750 -1.562500 -9.890625 -5.906250q-3.531250 -4.359375 -3.531250 -10.609375q0.000000 -8.734375 6.218750 -13.812500q6.234375 -5.078125 17.062500 -5.078125q10.890625 0.000000 17.093750 5.078125q6.203125 5.078125 6.203125 13.812500q0.000000 6.250000 -3.546875 10.609375q-3.531250 4.343750 -9.828125 5.906250q7.125000 1.656250 11.093750 6.500000q3.984375 4.828125 3.984375 11.796875q0.000000 10.609375 -6.468750 16.281250q-6.468750 5.656250 -18.531250 5.656250q-12.046875 0.000000 -18.531250 -5.656250q-6.468750 -5.671875 -6.468750 -16.281250q0.000000 -6.968750 4.000000 -11.796875q4.015625 -4.843750 11.140625 -6.500000M18.312500 -54.390625q0.000000 5.656250 3.531250 8.828125q3.546875 3.171875 9.937500 3.171875q6.359375 0.000000 9.937500 -3.171875q3.593750 -3.171875 3.593750 -8.828125q0.000000 -5.671875 -3.593750 -8.843750q-3.578125 -3.171875 -9.937500 -3.171875q-6.390625 0.000000 -9.937500 3.171875q-3.531250 3.171875 -3.531250 8.843750"/>
</defs>
<g style="fill: #000000; opacity: 1.000000" transform="translate(21.637500,54.506250)scale(0.120000)">
<use xlink:href="#c_bef35738d52871942e50b9de9b122bab"/>
</g>
</g>
</g>
<g id="ytick10">
<g id="line2d59">
<path style="fill: none; stroke: #000000; stroke-width: 0.500000; stroke-linejoin: round; stroke-linecap: butt; stroke-dasharray: 1.000000,3.000000; stroke-dashoffset: 0.000000; opacity: 1.000000" clip-path="url(#pe7cde69d57c01d444299f113b434c76e)" d="M31.637500 11.739062L478.037500 11.739062"/>
</g>
<g id="line2d60">
<g ><use style="fill: none; stroke: #000000; stroke-width: 0.500000; stroke-linejoin: round; stroke-linecap: butt;  opacity: 1.000000" xlink:href="#m3400efa6b1638b3fea9e19e898273957" x="31.637500" y="11.739062"/>
</g></g>
<g id="line2d61">
<g ><use style="fill: none; stroke: #000000; stroke-width: 0.500000; stroke-linejoin: round; stroke-linecap: butt;  opacity: 1.000000" xlink:href="#m20b58b2501143cb5e0a5e8f1ef6f1643" x="478.037500" y="11.739062"/>
</g></g>
<g id="text18">
<defs>
<path id="c_cd96f817f3cab988d24a2b49a5577fe6" d="M10.984375 -1.515625l0.000000 -8.984375q3.718750 1.765625 7.515625 2.687500q3.812500 0.921875 7.484375 0.921875q9.765625 0.000000 14.906250 -6.562500q5.156250 -6.562500 5.890625 -19.953125q-2.828125 4.203125 -7.187500 6.453125q-4.343750 2.250000 -9.609375 2.250000q-10.937500 0.000000 -17.312500 -6.609375q-6.375000 -6.625000 -6.375000 -18.109375q0.000000 -11.218750 6.640625 -18.000000q6.640625 -6.796875 17.671875 -6.796875q12.656250 0.000000 19.312500 9.703125q6.671875 9.687500 6.671875 28.140625q0.000000 17.234375 -8.187500 27.515625q-8.171875 10.281250 -21.984375 10.281250q-3.718750 0.000000 -7.531250 -0.734375q-3.796875 -0.734375 -7.906250 -2.203125M30.609375 -32.421875q6.640625 0.000000 10.515625 -4.531250q3.890625 -4.546875 3.890625 -12.468750q0.000000 -7.859375 -3.890625 -12.421875q-3.875000 -4.562500 -10.515625 -4.562500q-6.640625 0.000000 -10.515625 4.562500q-3.875000 4.562500 -3.875000 12.421875q0.000000 7.921875 3.875000 12.468750q3.875000 4.531250 10.515625 4.531250"/>
</defs>
<g style="fill: #000000; opacity: 1.000000" transform="translate(21.590625,16.106250)scale(0.120000)">
<use xlink:href="#c_cd96f817f3cab988d24a2b49a5577fe6"/>
</g>
</g>
</g>
<g id="text19">
<defs>
<path id="c_3fe22c4af425ac970aec982ae9662abe" d="M32.171875 5.078125q-3.796875 9.765625 -7.421875 12.734375q-3.609375 2.984375 -9.656250 2.984375l-7.187500 0.000000l0.000000 -7.515625l5.281250 0.000000q3.703125 0.000000 5.750000 -1.765625q2.062500 -1.750000 4.546875 -8.296875l1.609375 -4.093750l-22.109375 -53.812500l9.515625 0.000000l17.093750 42.765625l17.093750 -42.765625l9.515625 0.000000z"/>
</defs>
<g style="fill: #000000; opacity: 1.000000" transform="translate(16.262500,185.234375)rotate(-90.0)scale(0.120000)">
<use xlink:href="#c_3fe22c4af425ac970aec982ae9662abe"/>
</g>
</g>
</g>
<g id="patch3">
<path style="fill: none; stroke: #000000; stroke-width: 1.000000; stroke-linejoin: round; stroke-linecap: square;  opacity: 1.000000"  d="M31.637500 11.739062L478.037500 11.739062"/>
</g>
<g id="patch4">
<path style="fill: none; stroke: #000000; stroke-width: 1.000000; stroke-linejoin: round; stroke-linecap: square;  opacity: 1.000000"  d="M478.037500 357.339062L478.037500 11.739062"/>
</g>
<g id="patch5">
<path style="fill: none; stroke: #000000; stroke-width: 1.000000; stroke-linejoin: round; stroke-linecap: square;  opacity: 1.000000"  d="M31.637500 357.339062L478.037500 357.339062"/>
</g>
<g id="patch6">
<path style="fill: none; stroke: #000000; stroke-width: 1.000000; stroke-linejoin: round; stroke-linecap: square;  opacity: 1.000000"  d="M31.637500 357.339062L31.637500 11.739062"/>
</g>
</g>
</g>
</svg>
