<?xml version="1.0" encoding="UTF-8" standalone="no"?>
<!-- Created with Inkscape (http://www.inkscape.org/) -->

<svg
   xmlns:dc="http://purl.org/dc/elements/1.1/"
   xmlns:cc="http://creativecommons.org/ns#"
   xmlns:rdf="http://www.w3.org/1999/02/22-rdf-syntax-ns#"
   xmlns:svg="http://www.w3.org/2000/svg"
   xmlns="http://www.w3.org/2000/svg"
   xmlns:sodipodi="http://sodipodi.sourceforge.net/DTD/sodipodi-0.dtd"
   xmlns:inkscape="http://www.inkscape.org/namespaces/inkscape"
   width="1609.5411"
   height="813.02667"
   id="svg2"
   inkscape:label="Pozadí"
   version="1.1"
   inkscape:version="0.48.2 r9819"
   sodipodi:docname="sample_sapphires.pdf">
  <defs
     id="defs9083">
    <marker
       inkscape:stockid="Arrow1SendUr"
       orient="auto"
       refY="0"
       refX="0"
       id="Arrow1SendUr"
       style="overflow:visible">
      <path
         inkscape:connector-curvature="0"
         id="path22323"
         d="M 0,0 5,-5 -12.5,0 5,5 0,0 z"
         style="fill:#000000;fill-rule:evenodd;stroke:#000000;stroke-width:1pt;marker-start:none"
         transform="matrix(-0.2,0,0,-0.2,-1.2,0)" />
    </marker>
    <marker
       inkscape:stockid="Arrow1Sendgq"
       orient="auto"
       refY="0"
       refX="0"
       id="Arrow1Sendgq"
       style="overflow:visible">
      <path
         inkscape:connector-curvature="0"
         id="path22320"
         d="M 0,0 5,-5 -12.5,0 5,5 0,0 z"
         style="fill:#000000;fill-rule:evenodd;stroke:#000000;stroke-width:1pt;marker-start:none"
         transform="matrix(-0.2,0,0,-0.2,-1.2,0)" />
    </marker>
    <marker
       inkscape:stockid="Arrow1Sendgq"
       orient="auto"
       refY="0"
       refX="0"
       id="marker8982"
       style="overflow:visible">
      <path
         inkscape:connector-curvature="0"
         id="path8984"
         d="M 0,0 5,-5 -12.5,0 5,5 0,0 z"
         style="fill:#000000;fill-rule:evenodd;stroke:#000000;stroke-width:1pt;marker-start:none"
         transform="matrix(-0.2,0,0,-0.2,-1.2,0)" />
    </marker>
    <marker
       inkscape:stockid="Arrow1Sendgq"
       orient="auto"
       refY="0"
       refX="0"
       id="marker8986"
       style="overflow:visible">
      <path
         inkscape:connector-curvature="0"
         id="path8988"
         d="M 0,0 5,-5 -12.5,0 5,5 0,0 z"
         style="fill:#000000;fill-rule:evenodd;stroke:#000000;stroke-width:1pt;marker-start:none"
         transform="matrix(-0.2,0,0,-0.2,-1.2,0)" />
    </marker>
    <marker
       inkscape:stockid="Arrow1Sendgq"
       orient="auto"
       refY="0"
       refX="0"
       id="marker8990"
       style="overflow:visible">
      <path
         inkscape:connector-curvature="0"
         id="path8992"
         d="M 0,0 5,-5 -12.5,0 5,5 0,0 z"
         style="fill:#000000;fill-rule:evenodd;stroke:#000000;stroke-width:1pt;marker-start:none"
         transform="matrix(-0.2,0,0,-0.2,-1.2,0)" />
    </marker>
    <marker
       inkscape:stockid="Arrow1SendUr"
       orient="auto"
       refY="0"
       refX="0"
       id="marker8994"
       style="overflow:visible">
      <path
         inkscape:connector-curvature="0"
         id="path8996"
         d="M 0,0 5,-5 -12.5,0 5,5 0,0 z"
         style="fill:#000000;fill-rule:evenodd;stroke:#000000;stroke-width:1pt;marker-start:none"
         transform="matrix(-0.2,0,0,-0.2,-1.2,0)" />
    </marker>
    <marker
       inkscape:stockid="Arrow1Send"
       orient="auto"
       refY="0"
       refX="0"
       id="Arrow1Send"
       style="overflow:visible">
      <path
         inkscape:connector-curvature="0"
         id="path9132"
         d="M 0,0 5,-5 -12.5,0 5,5 0,0 z"
         style="fill-rule:evenodd;stroke:#000000;stroke-width:1pt;marker-start:none"
         transform="matrix(-0.2,0,0,-0.2,-1.2,0)" />
    </marker>
    <marker
       inkscape:stockid="Arrow1Send"
       orient="auto"
       refY="0"
       refX="0"
       id="marker9000"
       style="overflow:visible">
      <path
         inkscape:connector-curvature="0"
         id="path9002"
         d="M 0,0 5,-5 -12.5,0 5,5 0,0 z"
         style="fill-rule:evenodd;stroke:#000000;stroke-width:1pt;marker-start:none"
         transform="matrix(-0.2,0,0,-0.2,-1.2,0)" />
    </marker>
    <marker
       inkscape:stockid="Arrow1Send"
       orient="auto"
       refY="0"
       refX="0"
       id="marker9004"
       style="overflow:visible">
      <path
         inkscape:connector-curvature="0"
         id="path9006"
         d="M 0,0 5,-5 -12.5,0 5,5 0,0 z"
         style="fill-rule:evenodd;stroke:#000000;stroke-width:1pt;marker-start:none"
         transform="matrix(-0.2,0,0,-0.2,-1.2,0)" />
    </marker>
    <marker
       inkscape:stockid="Arrow1Sendgq"
       orient="auto"
       refY="0"
       refX="0"
       id="marker9008"
       style="overflow:visible">
      <path
         inkscape:connector-curvature="0"
         id="path9010"
         d="M 0,0 5,-5 -12.5,0 5,5 0,0 z"
         style="fill:#000000;fill-rule:evenodd;stroke:#000000;stroke-width:1pt;marker-start:none"
         transform="matrix(-0.2,0,0,-0.2,-1.2,0)" />
    </marker>
    <marker
       inkscape:stockid="Arrow1SendUr"
       orient="auto"
       refY="0"
       refX="0"
       id="marker9012"
       style="overflow:visible">
      <path
         inkscape:connector-curvature="0"
         id="path9014"
         d="M 0,0 5,-5 -12.5,0 5,5 0,0 z"
         style="fill:#000000;fill-rule:evenodd;stroke:#000000;stroke-width:1pt;marker-start:none"
         transform="matrix(-0.2,0,0,-0.2,-1.2,0)" />
    </marker>
    <marker
       inkscape:stockid="Arrow1Send"
       orient="auto"
       refY="0"
       refX="0"
       id="Arrow1Send-8"
       style="overflow:visible">
      <path
         inkscape:connector-curvature="0"
         id="path9132-1"
         d="M 0,0 5,-5 -12.5,0 5,5 0,0 z"
         style="fill-rule:evenodd;stroke:#000000;stroke-width:1pt;marker-start:none"
         transform="matrix(-0.2,0,0,-0.2,-1.2,0)" />
    </marker>
  </defs>
  <sodipodi:namedview
     id="base"
     pagecolor="#ffffff"
     bordercolor="#666666"
     borderopacity="1.0"
     inkscape:pageopacity="0.0"
     inkscape:pageshadow="2"
     inkscape:zoom="0.49497475"
     inkscape:cx="906.67337"
     inkscape:cy="461.173"
     inkscape:document-units="px"
     inkscape:current-layer="layer1"
     showgrid="false"
     fit-margin-top="0"
     fit-margin-left="0"
     fit-margin-right="0"
     fit-margin-bottom="0"
     inkscape:window-width="1920"
     inkscape:window-height="1040"
     inkscape:window-x="0"
     inkscape:window-y="0"
     inkscape:window-maximized="1" />
  <metadata
     id="metadata9086">
    <rdf:RDF>
      <cc:Work
         rdf:about="">
        <dc:format>image/svg+xml</dc:format>
        <dc:type
           rdf:resource="http://purl.org/dc/dcmitype/StillImage" />
        <dc:title></dc:title>
      </cc:Work>
    </rdf:RDF>
  </metadata>
  <g
     inkscape:label="Vrstva 1"
     inkscape:groupmode="layer"
     id="layer1"
     transform="translate(148.54537,-71.760899)">
    <path
       id="path9640-7-5-7-6"
       style="fill:#f9f9f9;stroke:#000000;stroke-width:1px;stroke-linecap:butt;stroke-linejoin:miter;stroke-opacity:1"
       d="m 1071.933,202.96997 c -15.3476,50.9917 -27.9298,89.6361 -30.3266,160.8577 l -23.2159,1.4583 c -1.6742,-70.0892 -31.25436,-150.5316 -31.25436,-150.5316"
       inkscape:connector-curvature="0"
       sodipodi:nodetypes="cccc" />
    <path
       id="path9640-7-5-3"
       style="fill:#f9f9f9;stroke:#000000;stroke-width:1px;stroke-linecap:butt;stroke-linejoin:miter;stroke-opacity:1"
       d="m 986.77104,569.15667 c 15.34776,-50.9916 27.92976,-89.6358 30.32676,-160.8576 l 23.2159,-1.4581 c 1.6743,70.0892 31.2543,150.5314 31.2543,150.5314"
       inkscape:connector-curvature="0"
       sodipodi:nodetypes="cccc" />
    <path
       id="path9640-7-5-7"
       style="fill:#f9f9f9;stroke:#000000;stroke-width:1px;stroke-linecap:butt;stroke-linejoin:miter;stroke-opacity:1"
       d="m 322.38789,315.76962 c 0,0 -177.7063,-45.9638 -335.674702,-47.7352 -14.0868,-0.1583 15.8648995,-16.2875 0.9358,-18.6865 120.290402,-3.5924 213.745102,-29.5614 320.605802,-44.3519 43.2708,18.5466 77.5902,49.0982 98.93,98.9892 -15.3476,50.9917 -27.9298,103.6361 -30.3266,174.8577 l -23.2159,1.4583 c -1.6742,-70.0892 -31.2544,-164.5316 -31.2544,-164.5316 z"
       inkscape:connector-curvature="0"
       sodipodi:nodetypes="cscccccc" />
    <rect
       style="color:#000000;fill:#ffaaaa;fill-opacity:1;fill-rule:nonzero;stroke:#550000;stroke-width:2.73188972;stroke-linecap:butt;stroke-linejoin:miter;stroke-miterlimit:4;stroke-opacity:1;stroke-dasharray:none;stroke-dashoffset:0;marker:none;visibility:visible;display:inline;overflow:visible;enable-background:accumulate"
       id="rect9636"
       width="35.332142"
       height="94.275581"
       x="-17.487173"
       y="209.88226" />
    <path
       id="path9640-7-9"
       style="fill:#f9f9f9;stroke:#000000;stroke-width:5.46732283;stroke-linecap:butt;stroke-linejoin:miter;stroke-miterlimit:4;stroke-opacity:1;stroke-dasharray:none"
       d="m 300.63509,196.62432 c 49.9678,21.4173 89.5991,56.6973 114.2417,114.3103"
       inkscape:connector-curvature="0"
       sodipodi:nodetypes="cc" />
    <path
       id="path9640-7-5"
       style="fill:#f9f9f9;stroke:#000000;stroke-width:1px;stroke-linecap:butt;stroke-linejoin:miter;stroke-opacity:1"
       d="m 406.81979,658.38762 c 0,0 177.7062,45.9637 335.6746,47.7352 14.0869,0.1582 -15.8649,16.2876 -0.9357,18.6866 -120.2904,3.5925 -213.7452,29.5613 -320.6059,44.352 -43.2707,-18.5469 -77.5902,-49.0982 -98.93,-98.9895 15.3478,-50.9916 27.9298,-103.6358 30.3268,-174.8576 l 23.2159,-1.4581 c 1.6743,70.0892 31.2543,164.5314 31.2543,164.5314 z"
       inkscape:connector-curvature="0"
       sodipodi:nodetypes="cscccccc" />
    <path
       id="path9640-7-9-3"
       style="fill:#f9f9f9;stroke:#000000;stroke-width:5.46732283;stroke-linecap:butt;stroke-linejoin:miter;stroke-miterlimit:4;stroke-opacity:1;stroke-dasharray:none"
       d="m 430.37519,775.34862 c -49.9678,-21.4172 -89.5989,-56.6972 -114.2416,-114.3101"
       inkscape:connector-curvature="0"
       sodipodi:nodetypes="cc" />
    <path
       style="fill:#87cdde;stroke:#000000;stroke-width:3.47952819;stroke-linecap:butt;stroke-linejoin:miter;stroke-miterlimit:4;stroke-opacity:1;stroke-dasharray:none;marker-end:url(#Arrow1SendUr)"
       d="m 23.205524,257.10968 c 0,0 51.6073,-1.1898 73.645104,0 22.037902,1.1899 23.913602,32.0164 33.626902,31.8995 9.7139,-0.1172 7.5276,-147.449 12.457,-149.09 4.9289,-1.641 -2.0132,121.2582 13.9861,118.8041 l 24.7536,0"
       id="path9855"
       inkscape:connector-curvature="0"
       sodipodi:nodetypes="czzzcc" />
    <path
       style="fill:#87cdde;stroke:#000000;stroke-width:3.54330707;stroke-linecap:butt;stroke-linejoin:miter;stroke-miterlimit:4;stroke-opacity:1;stroke-dasharray:none;marker-end:url(#Arrow1Sendgq)"
       d="m 544.08054,710.59968 c 9.0937,0.1585 17.508,11.8258 21.7592,14.0901 2.4605,1.3107 2.0379,-33.3859 6.1942,-33.1401 2.9287,0.1737 2.3968,44.8216 5.4917,45.0055 2.026,0.1199 1.1211,-50.0469 4.4593,-50.1771 4.0075,-0.1568 3.741,33.3734 7.6003,33.6153 3.8591,0.242 0.4107,-54.3213 4.5278,-54.222 4.1174,0.097 -1.0249,47.9199 19.2559,46.9096 l 9.324,-0.045 c 3.0637,0.1483 6.0053,-3.8841 9.2562,-1.4304 2.5283,1.9084 5.3794,10.6006 7.7475,9.8058 2.5721,-0.863 4.9792,-15.5871 7.068,-14.4054 2.6693,1.5097 3.3952,21.2415 5.5253,19.9526 4.1754,-2.5267 6.6985,-31.1109 8.5875,-26.8463 3.1142,7.0301 3.7905,45.6721 8.4053,45.6184 4.615,-0.052 -0.2713,-103.7057 5.9767,-105.678 6.2481,-1.9719 1.09,86.074 15.9218,79.0145 0,0 3.4037,-2.327 8.4103,-3.2907 5.0068,-0.9636 21.5956,0 21.5956,0"
       id="path9855-2"
       inkscape:connector-curvature="0"
       sodipodi:nodetypes="csssszzccssssszzczc" />
    <rect
       style="color:#000000;fill:#afdde9;fill-opacity:1;fill-rule:nonzero;stroke:#216778;stroke-width:2.27834678;stroke-miterlimit:4;stroke-dasharray:none;marker:none;visibility:visible;display:inline;overflow:visible;enable-background:accumulate"
       id="rect9734"
       width="213.63589"
       height="52.842529"
       x="919.30682"
       y="396.89935" />
    <rect
       style="color:#000000;fill:#afdde9;fill-opacity:1;fill-rule:nonzero;stroke:#216778;stroke-width:2.27834678;stroke-miterlimit:4;stroke-dasharray:none;marker:none;visibility:visible;display:inline;overflow:visible;enable-background:accumulate"
       id="rect9734-3"
       width="213.63589"
       height="33.54731"
       x="919.30682"
       y="340.38397" />
    <path
       sodipodi:type="arc"
       style="color:#000000;fill:#ffe6d5;fill-opacity:1;fill-rule:nonzero;stroke:#d45500;stroke-width:1.0386157;stroke-linecap:butt;stroke-linejoin:miter;stroke-miterlimit:4;stroke-opacity:1;stroke-dasharray:none;stroke-dashoffset:0;marker:none;visibility:visible;display:inline;overflow:visible;enable-background:accumulate"
       id="path9754"
       sodipodi:cx="1919.3529"
       sodipodi:cy="1566.6451"
       sodipodi:rx="4.3310289"
       sodipodi:ry="4.3310289"
       d="m 1923.6839,1566.6451 c 0,2.392 -1.939,4.3311 -4.331,4.3311 -2.392,0 -4.331,-1.9391 -4.331,-4.3311 0,-2.3919 1.939,-4.331 4.331,-4.331 2.392,0 4.331,1.9391 4.331,4.331 z"
       transform="matrix(2.1893243,0,0,2.1979591,-3157.6753,-3058.2612)" />
    <path
       sodipodi:type="arc"
       style="color:#000000;fill:#ffe6d5;fill-opacity:1;fill-rule:nonzero;stroke:#d45500;stroke-width:1.0386157;stroke-linecap:butt;stroke-linejoin:miter;stroke-miterlimit:4;stroke-opacity:1;stroke-dasharray:none;stroke-dashoffset:0;marker:none;visibility:visible;display:inline;overflow:visible;enable-background:accumulate"
       id="path9754-4"
       sodipodi:cx="1919.3529"
       sodipodi:cy="1566.6451"
       sodipodi:rx="4.3310289"
       sodipodi:ry="4.3310289"
       d="m 1923.6839,1566.6451 c 0,2.392 -1.939,4.3311 -4.331,4.3311 -2.392,0 -4.331,-1.9391 -4.331,-4.3311 0,-2.3919 1.939,-4.331 4.331,-4.331 2.392,0 4.331,1.9391 4.331,4.331 z"
       transform="matrix(2.1893243,0,0,2.1979591,-3186.315,-3058.2612)" />
    <path
       sodipodi:type="arc"
       style="color:#000000;fill:#ffe6d5;fill-opacity:1;fill-rule:nonzero;stroke:#d45500;stroke-width:1.13093722;stroke-linecap:butt;stroke-linejoin:miter;stroke-miterlimit:4;stroke-opacity:1;stroke-dasharray:none;stroke-dashoffset:0;marker:none;visibility:visible;display:inline;overflow:visible;enable-background:accumulate"
       id="path9754-8"
       sodipodi:cx="1919.3529"
       sodipodi:cy="1566.6451"
       sodipodi:rx="4.3310289"
       sodipodi:ry="4.3310289"
       d="m 1923.6839,1566.6451 c 0,2.392 -1.939,4.3311 -4.331,4.3311 -2.392,0 -4.331,-1.9391 -4.331,-4.3311 0,-2.3919 1.939,-4.331 4.331,-4.331 2.392,0 4.331,1.9391 4.331,4.331 z"
       transform="matrix(2.010604,0,0,2.0185339,-2895.8714,-2776.3885)" />
    <path
       sodipodi:type="arc"
       style="color:#000000;fill:#ffe6d5;fill-opacity:1;fill-rule:nonzero;stroke:#d45500;stroke-width:1.13093722;stroke-linecap:butt;stroke-linejoin:miter;stroke-miterlimit:4;stroke-opacity:1;stroke-dasharray:none;stroke-dashoffset:0;marker:none;visibility:visible;display:inline;overflow:visible;enable-background:accumulate"
       id="path9754-8-3"
       sodipodi:cx="1919.3529"
       sodipodi:cy="1566.6451"
       sodipodi:rx="4.3310289"
       sodipodi:ry="4.3310289"
       d="m 1923.6839,1566.6451 c 0,2.392 -1.939,4.3311 -4.331,4.3311 -2.392,0 -4.331,-1.9391 -4.331,-4.3311 0,-2.3919 1.939,-4.331 4.331,-4.331 2.392,0 4.331,1.9391 4.331,4.331 z"
       transform="matrix(2.010604,0,0,2.0185339,-2789.1046,-2776.3885)" />
    <path
       sodipodi:type="arc"
       style="color:#000000;fill:#ffe6d5;fill-opacity:1;fill-rule:nonzero;stroke:#d45500;stroke-width:1.37546396;stroke-linecap:butt;stroke-linejoin:miter;stroke-miterlimit:4;stroke-opacity:1;stroke-dasharray:none;stroke-dashoffset:0;marker:none;visibility:visible;display:inline;overflow:visible;enable-background:accumulate"
       id="path9754-8-3-8"
       sodipodi:cx="1919.3529"
       sodipodi:cy="1566.6451"
       sodipodi:rx="4.3310289"
       sodipodi:ry="4.3310289"
       d="m 1923.6839,1566.6451 c 0,2.392 -1.939,4.3311 -4.331,4.3311 -2.392,0 -4.331,-1.9391 -4.331,-4.3311 0,-2.3919 1.939,-4.331 4.331,-4.331 2.392,0 4.331,1.9391 4.331,4.331 z"
       transform="matrix(1.6531632,0,0,1.6596835,-2186.982,-2212.6427)" />
    <path
       sodipodi:type="arc"
       style="color:#000000;fill:#ffe6d5;fill-opacity:1;fill-rule:nonzero;stroke:#d45500;stroke-width:1.37546396;stroke-linecap:butt;stroke-linejoin:miter;stroke-miterlimit:4;stroke-opacity:1;stroke-dasharray:none;stroke-dashoffset:0;marker:none;visibility:visible;display:inline;overflow:visible;enable-background:accumulate"
       id="path9754-8-3-8-7"
       sodipodi:cx="1919.3529"
       sodipodi:cy="1566.6451"
       sodipodi:rx="4.3310289"
       sodipodi:ry="4.3310289"
       d="m 1923.6839,1566.6451 c 0,2.392 -1.939,4.3311 -4.331,4.3311 -2.392,0 -4.331,-1.9391 -4.331,-4.3311 0,-2.3919 1.939,-4.331 4.331,-4.331 2.392,0 4.331,1.9391 4.331,4.331 z"
       transform="matrix(1.6531632,0,0,1.6596835,-2090.9545,-2212.6427)" />
    <path
       sodipodi:type="arc"
       style="color:#000000;fill:#ffe6d5;fill-opacity:1;fill-rule:nonzero;stroke:#d45500;stroke-width:1.0386157;stroke-linecap:butt;stroke-linejoin:miter;stroke-miterlimit:4;stroke-opacity:1;stroke-dasharray:none;stroke-dashoffset:0;marker:none;visibility:visible;display:inline;overflow:visible;enable-background:accumulate"
       id="path9754-7"
       sodipodi:cx="1919.3529"
       sodipodi:cy="1566.6451"
       sodipodi:rx="4.3310289"
       sodipodi:ry="4.3310289"
       d="m 1923.6839,1566.6451 c 0,2.392 -1.939,4.3311 -4.331,4.3311 -2.392,0 -4.331,-1.9391 -4.331,-4.3311 0,-2.3919 1.939,-4.331 4.331,-4.331 2.392,0 4.331,1.9391 4.331,4.331 z"
       transform="matrix(2.1893243,0,0,2.1979591,-3099.8887,-3058.2612)" />
    <rect
       style="color:#000000;fill:#ffaaaa;fill-opacity:1;fill-rule:nonzero;stroke:#550000;stroke-width:2.73188972;stroke-linecap:butt;stroke-linejoin:miter;stroke-miterlimit:4;stroke-opacity:1;stroke-dasharray:none;stroke-dashoffset:0;marker:none;visibility:visible;display:inline;overflow:visible;enable-background:accumulate"
       id="rect9636-3"
       width="35.332142"
       height="94.275581"
       x="736.3988"
       y="667.11884" />
    <flowRoot
       xml:space="preserve"
       id="flowRoot36766-8"
       style="font-size:30.3734684px;font-style:normal;font-variant:normal;font-weight:500;font-stretch:normal;text-align:center;line-height:110.00000238%;letter-spacing:0px;word-spacing:0px;writing-mode:lr-tb;text-anchor:middle;fill:#000000;fill-opacity:1;stroke:none;font-family:URW Palladio L;-inkscape-font-specification:URW Palladio L Medium"
       transform="matrix(1.6655732,0,0,1.6665725,-1628.2074,-2593.7373)"><flowRegion
         id="flowRegion36768-5"><rect
           id="rect36770-5"
           width="749.72827"
           height="166"
           x="608"
           y="1612.9922"
           style="font-size:30.3734684px;font-style:normal;font-variant:normal;font-weight:500;font-stretch:normal;text-align:center;line-height:110.00000238%;writing-mode:lr-tb;text-anchor:middle;fill:#000000;font-family:URW Palladio L;-inkscape-font-specification:URW Palladio L Medium" /></flowRegion><flowPara
         id="flowPara36772-1">THz </flowPara><flowPara
         id="flowPara36712">emitter</flowPara></flowRoot>    <flowRoot
       xml:space="preserve"
       id="flowRoot36766-8-0"
       style="font-size:30.3734684px;font-style:normal;font-variant:normal;font-weight:500;font-stretch:normal;text-align:justify;line-height:110.00000238%;letter-spacing:0px;word-spacing:0px;writing-mode:lr-tb;text-anchor:start;fill:#006680;fill-opacity:1;stroke:none;font-family:URW Palladio L;-inkscape-font-specification:URW Palladio L Medium"
       transform="matrix(1.6655732,0,0,1.6665725,-858.21031,-2624.977)"><flowRegion
         id="flowRegion36768-5-86"><rect
           id="rect36770-5-60"
           width="749.72827"
           height="166"
           x="608"
           y="1612.9922"
           style="font-size:30.3734684px;font-style:normal;font-variant:normal;font-weight:500;font-stretch:normal;text-align:justify;line-height:110.00000238%;writing-mode:lr-tb;text-anchor:start;fill:#006680;font-family:URW Palladio L;-inkscape-font-specification:URW Palladio L Medium" /></flowRegion><flowPara
         id="flowPara36772-1-3">input</flowPara><flowPara
         id="flowPara10586">THz pulse</flowPara></flowRoot>    <flowRoot
       xml:space="preserve"
       id="flowRoot36766-8-46"
       style="font-size:30.3734684px;font-style:normal;font-variant:normal;font-weight:500;font-stretch:normal;text-align:end;line-height:110.00000238%;letter-spacing:0px;word-spacing:0px;writing-mode:lr-tb;text-anchor:end;fill:#000000;fill-opacity:1;stroke:none;font-family:URW Palladio L;-inkscape-font-specification:URW Palladio L Medium"
       transform="matrix(1.6655732,0,0,1.6665725,-1488.0059,-1916.7328)"><flowRegion
         id="flowRegion36768-5-0"><rect
           id="rect36770-5-66"
           width="749.72827"
           height="166"
           x="608"
           y="1612.9922"
           style="font-size:30.3734684px;font-style:normal;font-variant:normal;font-weight:500;font-stretch:normal;text-align:end;line-height:110.00000238%;writing-mode:lr-tb;text-anchor:end;fill:#000000;font-family:URW Palladio L;-inkscape-font-specification:URW Palladio L Medium" /></flowRegion><flowPara
         id="flowPara10555">optical</flowPara><flowPara
         id="flowPara9274">sampling</flowPara></flowRoot>    <flowRoot
       xml:space="preserve"
       id="flowRoot36766-8-9"
       style="font-size:30.3734684px;font-style:normal;font-variant:normal;font-weight:500;font-stretch:normal;text-align:justify;line-height:110.00000238%;letter-spacing:0px;word-spacing:0px;writing-mode:lr-tb;text-anchor:start;fill:#000000;fill-opacity:1;stroke:none;font-family:URW Palladio L;-inkscape-font-specification:URW Palladio L Medium"
       transform="matrix(1.6655732,0,0,1.6665725,163.86878,-2519.8413)"><flowRegion
         id="flowRegion36768-5-50"><rect
           id="rect36770-5-9"
           width="749.72827"
           height="166"
           x="608"
           y="1612.9922"
           style="font-size:30.3734684px;font-style:normal;font-variant:normal;font-weight:500;font-stretch:normal;text-align:justify;line-height:110.00000238%;writing-mode:lr-tb;text-anchor:start;fill:#000000;font-family:URW Palladio L;-inkscape-font-specification:URW Palladio L Medium" /></flowRegion><flowPara
         id="flowPara10551">3 mm/6 mm</flowPara><flowPara
         id="flowPara9270">sapphire </flowPara><flowPara
         id="flowPara10557">slabs</flowPara></flowRoot>    <flowRoot
       xml:space="preserve"
       id="flowRoot36766-8-9-1"
       style="font-size:30.3734684px;font-style:normal;font-variant:normal;font-weight:500;font-stretch:normal;text-align:justify;line-height:110.00000238%;letter-spacing:0px;word-spacing:0px;writing-mode:lr-tb;text-anchor:start;fill:#000000;fill-opacity:1;stroke:none;font-family:URW Palladio L;-inkscape-font-specification:URW Palladio L Medium"
       transform="matrix(1.6655732,0,0,1.6665725,-251.00233,-2417.2212)"><flowRegion
         id="flowRegion36768-5-50-2"><rect
           id="rect36770-5-9-0"
           width="749.72827"
           height="166"
           x="608"
           y="1612.9922"
           style="font-size:30.3734684px;font-style:normal;font-variant:normal;font-weight:500;font-stretch:normal;text-align:justify;line-height:110.00000238%;writing-mode:lr-tb;text-anchor:start;fill:#000000;font-family:URW Palladio L;-inkscape-font-specification:URW Palladio L Medium" /></flowRegion><flowPara
         id="flowPara36772-1-22-4">sample</flowPara></flowRoot>    <flowRoot
       xml:space="preserve"
       id="flowRoot36766-8-0-2"
       style="font-size:30.3734684px;font-style:normal;font-variant:normal;font-weight:500;font-stretch:normal;text-align:justify;line-height:110.00000238%;letter-spacing:0px;word-spacing:0px;writing-mode:lr-tb;text-anchor:start;fill:#006680;fill-opacity:1;stroke:none;font-family:URW Palladio L;-inkscape-font-specification:URW Palladio L Medium"
       transform="matrix(1.6655732,0,0,1.6665725,-478.16264,-2152.876)"><flowRegion
         id="flowRegion36768-5-86-1"><rect
           id="rect36770-5-60-5"
           width="749.72827"
           height="166"
           x="608"
           y="1612.9922"
           style="font-size:30.3734684px;font-style:normal;font-variant:normal;font-weight:500;font-stretch:normal;text-align:justify;line-height:110.00000238%;writing-mode:lr-tb;text-anchor:start;fill:#006680;font-family:URW Palladio L;-inkscape-font-specification:URW Palladio L Medium" /></flowRegion><flowPara
         id="flowPara36772-1-3-8">THz pulse</flowPara><flowPara
         id="flowPara10588">with echoes</flowPara></flowRoot>    <path
       sodipodi:nodetypes="cc"
       inkscape:connector-curvature="0"
       id="path19404"
       d="m 839.74794,345.68187 c 12.4878,19.6318 28.9157,40.0061 66.9233,37.9536"
       style="fill:none;stroke:#000000;stroke-width:4.18818951;stroke-linecap:butt;stroke-linejoin:miter;stroke-miterlimit:4;stroke-opacity:1;stroke-dasharray:none;marker-end:url(#Arrow1Send)" />
    <path
       sodipodi:nodetypes="ccc"
       inkscape:connector-curvature="0"
       id="path19697"
       d="m 312.87699,287.96592 9.577,27.915 23.6212,6.4224"
       style="fill:none;stroke:#000000;stroke-width:1px;stroke-linecap:butt;stroke-linejoin:miter;stroke-opacity:1" />
    <path
       sodipodi:nodetypes="ccc"
       inkscape:connector-curvature="0"
       id="path19697-6"
       d="m 416.59759,686.52972 -9.5771,-27.9152 -23.6211,-6.4223"
       style="fill:none;stroke:#000000;stroke-width:1px;stroke-linecap:butt;stroke-linejoin:miter;stroke-opacity:1" />
    <path
       sodipodi:nodetypes="cc"
       inkscape:connector-curvature="0"
       id="path19404-1"
       d="m 1199.2132,331.77225 -47.3736,30.9373"
       style="fill:none;stroke:#000000;stroke-width:4.18818951;stroke-linecap:butt;stroke-linejoin:miter;stroke-miterlimit:4;stroke-opacity:1;stroke-dasharray:none;marker-end:url(#Arrow1Send)" />
    <path
       sodipodi:nodetypes="cc"
       inkscape:connector-curvature="0"
       id="path19404-1-3"
       d="m 1198.6538,334.25567 -44.5779,83.132"
       style="fill:none;stroke:#000000;stroke-width:4.18818951;stroke-linecap:butt;stroke-linejoin:miter;stroke-miterlimit:4;stroke-opacity:1;stroke-dasharray:none;marker-end:url(#Arrow1Send)" />
    <path
       style="color:#000000;fill:#00ffff;fill-opacity:1;fill-rule:nonzero;stroke:#000000;stroke-width:3.47952819;stroke-linecap:butt;stroke-linejoin:miter;stroke-miterlimit:4;stroke-opacity:1;stroke-dasharray:none;stroke-dashoffset:0;marker:none;marker-end:url(#Arrow1SendUr);visibility:visible;display:inline;overflow:visible;enable-background:accumulate"
       d="m -146.80561,257.30172 127.931498,0"
       id="path36716"
       inkscape:connector-curvature="0" />
    <path
       id="path36741-0"
       style="fill:none;stroke:#000000;stroke-width:1px;stroke-linecap:butt;stroke-linejoin:miter;stroke-opacity:1"
       d="m -108.77651,259.15332 c 25.453798,0.4971 16.628598,60.8996 28.609498,60.5646 15.0777,-0.4214 4.0799,-60.7394 26.5162,-61.0164 m -55.125698,-3.6145 c 25.453798,-0.4969 16.628598,-60.8996 28.609498,-60.5645 15.0777,0.4214 4.0799,60.7393 26.5162,61.0166"
       inkscape:connector-curvature="0" />
    <path
       style="fill:#ff0000;stroke:#000000;stroke-width:0.99999994px;stroke-linecap:butt;stroke-linejoin:miter;stroke-opacity:1"
       d="m -104.65051,257.14342 c 0,-2.6636 6.644098,3.9157 6.644098,2.14 0,-1.7759 0,-0.8879 0,-3.9955 0,-3.1076 2.3521,-11.5422 2.3521,-11.5422 l 4.2336,42.6177 2.8224,-67.4781 3.7634,98.1097 3.2928,-121.1946 3.2928,118.5311 3.7632,-117.1992 2.8225,102.1053 4.2337,-69.254 2.3521,40.3981 4.7039,-20.8649 3.1361,8.0307"
       id="path36779"
       inkscape:connector-curvature="0"
       sodipodi:nodetypes="csscccccccccccc" />
    <flowRoot
       xml:space="preserve"
       id="flowRoot36766-8-7"
       style="font-size:30.3734684px;font-style:normal;font-variant:normal;font-weight:500;font-stretch:normal;text-align:justify;line-height:110.00000238%;letter-spacing:0px;word-spacing:0px;writing-mode:lr-tb;text-anchor:start;fill:#000000;fill-opacity:1;stroke:none;font-family:URW Palladio L;-inkscape-font-specification:URW Palladio L Medium"
       transform="matrix(1.6655732,0,0,1.6665725,-1161.5598,-2360.5921)"><flowRegion
         id="flowRegion36768-5-9"><rect
           id="rect36770-5-5"
           width="749.72827"
           height="166"
           x="608"
           y="1612.9922"
           style="font-size:30.3734684px;font-style:normal;font-variant:normal;font-weight:500;font-stretch:normal;text-align:justify;line-height:110.00000238%;writing-mode:lr-tb;text-anchor:start;fill:#000000;font-family:URW Palladio L;-inkscape-font-specification:URW Palladio L Medium" /></flowRegion><flowPara
         id="flowPara36712-0">fs optical</flowPara><flowPara
         id="flowPara36844">pulse</flowPara></flowRoot>    <path
       style="color:#000000;fill:#00ffff;fill-opacity:1;fill-rule:nonzero;stroke:#000000;stroke-width:3.54330707;stroke-linecap:butt;stroke-linejoin:bevel;stroke-miterlimit:4;stroke-opacity:1;stroke-dasharray:none;stroke-dashoffset:0;marker:none;marker-end:url(#Arrow1Sendgq);visibility:visible;display:inline;overflow:visible;enable-background:accumulate"
       d="m 1027.5604,269.08437 0,232.8264"
       id="path36918"
       inkscape:connector-curvature="0"
       sodipodi:nodetypes="cc" />
    <path
       style="color:#000000;fill:none;stroke:#000000;stroke-width:2.83464599;stroke-linecap:butt;stroke-linejoin:bevel;stroke-miterlimit:4;stroke-opacity:1;stroke-dasharray:none;stroke-dashoffset:0;marker:none;marker-end:url(#Arrow1Sendgq);visibility:visible;display:inline;overflow:visible;enable-background:accumulate"
       d="m 1027.0975,371.63147 22.7988,-32.2114 0,162.4906"
       id="path36918-4"
       inkscape:connector-curvature="0"
       sodipodi:nodetypes="ccc" />
    <path
       style="color:#000000;fill:none;stroke:#000000;stroke-width:2.12598419;stroke-linecap:butt;stroke-linejoin:bevel;stroke-miterlimit:4;stroke-opacity:1;stroke-dasharray:none;stroke-dashoffset:0;marker:none;marker-end:url(#Arrow1Sendgq);visibility:visible;display:inline;overflow:visible;enable-background:accumulate"
       d="m 1027.733,447.82217 38.1254,-52.4635 0,106.5518"
       id="path36918-4-2"
       inkscape:connector-curvature="0"
       sodipodi:nodetypes="ccc" />
    <path
       style="color:#000000;fill:none;stroke:#000000;stroke-width:2.12598419;stroke-linecap:butt;stroke-linejoin:bevel;stroke-miterlimit:4;stroke-opacity:1;stroke-dasharray:none;stroke-dashoffset:0;marker:none;marker-end:url(#Arrow1Sendgq);visibility:visible;display:inline;overflow:visible;enable-background:accumulate"
       d="m 1050.1947,371.63147 22.402,-32.2114 0,162.4906"
       id="path36918-4-9"
       inkscape:connector-curvature="0"
       sodipodi:nodetypes="ccc" />
    <rect
       style="color:#000000;fill:#afdde9;fill-opacity:1;fill-rule:nonzero;stroke:#216778;stroke-width:2.27834678;stroke-miterlimit:4;stroke-dasharray:none;marker:none;visibility:visible;display:inline;overflow:visible;enable-background:accumulate"
       id="rect9734-8"
       width="49.523167"
       height="11.841039"
       x="339.37177"
       y="488.40845" />
    <rect
       style="color:#000000;fill:#afdde9;fill-opacity:1;fill-rule:nonzero;stroke:#216778;stroke-width:2.27834678;stroke-miterlimit:4;stroke-dasharray:none;marker:none;visibility:visible;display:inline;overflow:visible;enable-background:accumulate"
       id="rect9734-3-3"
       width="49.523167"
       height="7.5173354"
       x="339.37177"
       y="475.74438" />
    <rect
       style="color:#000000;fill:#d45500;fill-opacity:1;fill-rule:nonzero;stroke:none;stroke-width:0.61857045;marker:none;visibility:visible;display:inline;overflow:visible;enable-background:accumulate"
       id="rect9376"
       width="35.229069"
       height="2.2097087"
       x="495.85864"
       y="412.88"
       transform="translate(-148.54537,71.760899)" />
    <rect
       style="color:#000000;fill:#d45500;fill-opacity:1;fill-rule:nonzero;stroke:none;stroke-width:0.61857045;marker:none;visibility:visible;display:inline;overflow:visible;enable-background:accumulate"
       id="rect9378"
       width="15"
       height="37.5"
       x="539.64288"
       y="398.38382"
       transform="translate(-148.54537,71.760899)" />
    <rect
       style="color:#000000;fill:#d45500;fill-opacity:1;fill-rule:nonzero;stroke:none;stroke-width:0.61857045;marker:none;visibility:visible;display:inline;overflow:visible;enable-background:accumulate"
       id="rect9378-7"
       width="15"
       height="37.5"
       x="321.8118"
       y="470.14471" />
    <flowRoot
       xml:space="preserve"
       id="flowRoot36766-8-9-1-7"
       style="font-size:30.3734684px;font-style:normal;font-variant:normal;font-weight:500;font-stretch:normal;text-align:justify;line-height:110.00000238%;letter-spacing:0px;word-spacing:0px;writing-mode:lr-tb;text-anchor:start;fill:#000000;fill-opacity:1;stroke:none;font-family:URW Palladio L;-inkscape-font-specification:URW Palladio L Medium"
       transform="matrix(1.6655732,0,0,1.6665725,-1016.7166,-2165.7926)"><flowRegion
         id="flowRegion36768-5-50-2-6"><rect
           id="rect36770-5-9-0-3"
           width="749.72827"
           height="166"
           x="608"
           y="1612.9922"
           style="font-size:30.3734684px;font-style:normal;font-variant:normal;font-weight:500;font-stretch:normal;text-align:justify;line-height:110.00000238%;writing-mode:lr-tb;text-anchor:start;fill:#000000;font-family:URW Palladio L;-inkscape-font-specification:URW Palladio L Medium" /></flowRegion><flowPara
         id="flowPara9434">sample with </flowPara><flowPara
         id="flowPara9436">sapphires</flowPara></flowRoot>    <path
       sodipodi:nodetypes="cc"
       inkscape:connector-curvature="0"
       id="path19404-7"
       d="m 246.89084,521.02953 c 12.4878,-19.6318 28.91571,-40.00611 66.92331,-37.95361"
       style="fill:none;stroke:#000000;stroke-width:4.18818951;stroke-linecap:butt;stroke-linejoin:miter;stroke-miterlimit:4;stroke-opacity:1;stroke-dasharray:none;marker-end:url(#Arrow1Send)" />
    <flowRoot
       xml:space="preserve"
       id="flowRoot36766-8-7-0"
       style="font-size:30.3734684px;font-style:normal;font-variant:normal;font-weight:500;font-stretch:normal;text-align:justify;line-height:110.00000238%;letter-spacing:0px;word-spacing:0px;writing-mode:lr-tb;text-anchor:start;fill:#000000;fill-opacity:1;stroke:none;font-family:URW Palladio L;-inkscape-font-specification:URW Palladio L Medium"
       transform="matrix(1.6655732,0,0,1.6665725,-1161.5598,-2609.1635)"><flowRegion
         id="flowRegion36768-5-9-5"><rect
           id="rect36770-5-5-8"
           width="749.72827"
           height="166"
           x="608"
           y="1612.9922"
           style="font-size:30.3734684px;font-style:normal;font-variant:normal;font-weight:500;font-stretch:normal;text-align:justify;line-height:110.00000238%;writing-mode:lr-tb;text-anchor:start;fill:#000000;font-family:URW Palladio L;-inkscape-font-specification:URW Palladio L Medium" /></flowRegion><flowPara
         id="flowPara36844-6"
         style="font-weight:bold">a)</flowPara></flowRoot>    <flowRoot
       xml:space="preserve"
       id="flowRoot36766-8-7-0-7"
       style="font-size:30.3734684px;font-style:normal;font-variant:normal;font-weight:500;font-stretch:normal;text-align:justify;line-height:110.00000238%;letter-spacing:0px;word-spacing:0px;writing-mode:lr-tb;text-anchor:start;fill:#000000;fill-opacity:1;stroke:none;font-family:URW Palladio L;-inkscape-font-specification:URW Palladio L Medium"
       transform="matrix(1.6655732,0,0,1.6665725,-240.13123,-2609.1635)"><flowRegion
         id="flowRegion36768-5-9-5-2"><rect
           id="rect36770-5-5-8-5"
           width="749.72827"
           height="166"
           x="608"
           y="1612.9922"
           style="font-size:30.3734684px;font-style:normal;font-variant:normal;font-weight:500;font-stretch:normal;text-align:justify;line-height:110.00000238%;writing-mode:lr-tb;text-anchor:start;fill:#000000;font-family:URW Palladio L;-inkscape-font-specification:URW Palladio L Medium" /></flowRegion><flowPara
         id="flowPara36844-6-2"
         style="font-weight:bold">b)</flowPara></flowRoot>  </g>
</svg>
