<?xml version="1.0" encoding="UTF-8" standalone="no"?>
<!-- Created with Inkscape (http://www.inkscape.org/) -->

<svg
   xmlns:dc="http://purl.org/dc/elements/1.1/"
   xmlns:cc="http://creativecommons.org/ns#"
   xmlns:rdf="http://www.w3.org/1999/02/22-rdf-syntax-ns#"
   xmlns:svg="http://www.w3.org/2000/svg"
   xmlns="http://www.w3.org/2000/svg"
   xmlns:sodipodi="http://sodipodi.sourceforge.net/DTD/sodipodi-0.dtd"
   xmlns:inkscape="http://www.inkscape.org/namespaces/inkscape"
   version="1.1"
   id="svg2"
   inkscape:version="0.91+devel r"
   xml:space="preserve"
   width="200.27089"
   height="118.56966"
   viewBox="0 0 200.27089 118.56966"
   sodipodi:docname="ERods_sketch_recordedline.svg"><metadata
     id="metadata8"><rdf:RDF><cc:Work
         rdf:about=""><dc:format>image/svg+xml</dc:format><dc:type
           rdf:resource="http://purl.org/dc/dcmitype/StillImage" /><dc:title></dc:title></cc:Work></rdf:RDF></metadata><defs
     id="defs6" /><sodipodi:namedview
     pagecolor="#ffffff"
     bordercolor="#666666"
     borderopacity="1"
     objecttolerance="10"
     gridtolerance="10"
     guidetolerance="10"
     inkscape:pageopacity="0"
     inkscape:pageshadow="2"
     inkscape:window-width="1366"
     inkscape:window-height="719"
     inkscape:document-units="px"
     id="namedview4"
     showgrid="false"
     fit-margin-top="0"
     fit-margin-left="0"
     fit-margin-right="0"
     fit-margin-bottom="0"
     inkscape:zoom="1.9092606"
     inkscape:cx="10.848824"
     inkscape:cy="12.550212"
     inkscape:window-x="0"
     inkscape:window-y="0"
     inkscape:window-maximized="1"
     inkscape:current-layer="g10" /><g
     id="g10"
     inkscape:groupmode="layer"
     inkscape:label="ERods_sketch_recordedline"
     transform="matrix(1.3333333,0,0,-1.3333333,34.094993,120.30033)"><text
       xml:space="preserve"
       style="font-style:normal;font-variant:normal;font-weight:500;font-stretch:normal;font-size:10.73720074px;line-height:125%;font-family:'URW Palladio L';-inkscape-font-specification:'URW Palladio L Medium';letter-spacing:0px;word-spacing:0px;fill:#000000;fill-opacity:1;stroke:none;stroke-width:0.67107505px;stroke-linecap:butt;stroke-linejoin:miter;stroke-opacity:1"
       x="88.62796"
       y="-33.340511"
       id="text4683"
       sodipodi:linespacing="125%"
       transform="scale(1,-1)"><tspan
         sodipodi:role="line"
         id="tspan4681"
         x="88.62796"
         y="-33.340511"
         style="stroke-width:0.67107505px">2<tspan
   style="font-size:5.23438549px;baseline-shift:super;stroke-width:0.67107505px"
   id="tspan4685">nd</tspan> cell</tspan></text>
<g
       transform="matrix(1,0,0,-1,-13.332829,92.706047)"
       id="g14"><path
         inkscape:connector-curvature="0"
         id="path16"
         style="fill:none;stroke:#000000;stroke-width:0.58743799;stroke-linecap:butt;stroke-linejoin:miter;stroke-miterlimit:4;stroke-dasharray:none;stroke-opacity:1"
         d="M 41.672,33.066 H 106.07" /></g><g
       transform="matrix(1,0,0,-1,-13.332829,92.706047)"
       id="g18"
       style="fill:#a40000;stroke:#a40000"><path
         inkscape:connector-curvature="0"
         id="path20"
         style="fill:#a40000;stroke:#a40000;stroke-width:1.51999998;stroke-linecap:butt;stroke-linejoin:miter;stroke-miterlimit:4;stroke-dasharray:none;stroke-opacity:1"
         d="M 75.32,30.02 51.797,80.938" /></g><g
       transform="matrix(1,0,0,-1,-13.332829,92.706047)"
       id="g22"><path
         inkscape:connector-curvature="0"
         id="path24"
         style="fill:none;stroke:#000000;stroke-width:0.58743799;stroke-linecap:butt;stroke-linejoin:miter;stroke-miterlimit:4;stroke-dasharray:none;stroke-opacity:1"
         d="m 35.152,47.703 h 66.129" /></g><g
       transform="matrix(1,0,0,-1,-13.332829,92.706047)"
       id="g26"><path
         inkscape:connector-curvature="0"
         id="path28"
         style="fill:#e6e6e6;fill-opacity:1;fill-rule:nonzero;stroke:#000000;stroke-width:0.80000001;stroke-linecap:butt;stroke-linejoin:miter;stroke-miterlimit:4;stroke-dasharray:none;stroke-opacity:1"
         d="m 65.555,41.328 c 0,1.297 -3.149,2.348 -7.039,2.348 -3.887,0 -7.036,-1.051 -7.036,-2.348" /></g><g
       transform="matrix(1,0,0,-1,-13.332829,92.706047)"
       id="g30"><path
         inkscape:connector-curvature="0"
         id="path32"
         style="fill:#e6e6e6;fill-opacity:1;fill-rule:nonzero;stroke:#000000;stroke-width:0.80000001;stroke-linecap:butt;stroke-linejoin:miter;stroke-miterlimit:4;stroke-dasharray:none;stroke-opacity:1"
         d="m 65.484,19.941 0.036,21.473 c 0.035,1.211 -3.114,2.262 -7.004,2.262 -3.887,0 -7.036,-1.051 -7.075,-2.262 L 51.406,19.941" /></g><g
       transform="matrix(1,0,0,-1,-13.332829,92.706047)"
       id="g34"><path
         inkscape:connector-curvature="0"
         id="path36"
         style="fill:#e6e6e6;fill-opacity:1;fill-rule:nonzero;stroke:#000000;stroke-width:0.80000001;stroke-linecap:butt;stroke-linejoin:miter;stroke-miterlimit:4;stroke-dasharray:2.4, 0.8;stroke-dashoffset:0;stroke-opacity:1"
         d="m 51.48,41.281 c 0,-1.293 3.149,-2.347 7.036,-2.347 3.89,0 7.039,1.054 7.039,2.347" /></g><g
       transform="matrix(1,0,0,-1,-13.332829,92.706047)"
       id="g38"><path
         inkscape:connector-curvature="0"
         id="path40"
         style="fill:#e6e6e6;fill-opacity:1;fill-rule:nonzero;stroke:#000000;stroke-width:0.80000001;stroke-linecap:butt;stroke-linejoin:miter;stroke-miterlimit:4;stroke-dasharray:none;stroke-opacity:1"
         d="m 65.484,19.941 c 0,1.297 -3.148,2.348 -7.039,2.348 -3.886,0 -7.039,-1.051 -7.039,-2.348 0,-1.293 3.153,-2.343 7.039,-2.343 3.891,0 7.039,1.05 7.039,2.343 z" /></g><g
       transform="matrix(1,0,0,-1,-13.332829,92.706047)"
       id="g42"><path
         inkscape:connector-curvature="0"
         id="path44"
         style="fill:#e6e6e6;fill-opacity:1;fill-rule:nonzero;stroke:#000000;stroke-width:0.80000001;stroke-linecap:butt;stroke-linejoin:miter;stroke-miterlimit:4;stroke-dasharray:none;stroke-opacity:1"
         d="m 94.488,40.934 c 0,1.285 -3.117,2.324 -6.965,2.324 -3.843,0 -6.961,-1.039 -6.961,-2.324" /></g><g
       transform="matrix(1,0,0,-1,-13.332829,92.706047)"
       id="g46"><path
         inkscape:connector-curvature="0"
         id="path48"
         style="fill:#e6e6e6;fill-opacity:1;fill-rule:nonzero;stroke:#000000;stroke-width:0.80000001;stroke-linecap:butt;stroke-linejoin:miter;stroke-miterlimit:4;stroke-dasharray:none;stroke-opacity:1"
         d="m 94.277,20.336 0.035,21.242 c 0.036,1.199 -3.082,2.234 -6.925,2.234 -3.848,0 -6.965,-1.035 -7,-2.234 L 80.352,20.336" /></g><g
       transform="matrix(1,0,0,-1,-13.332829,92.706047)"
       id="g50"><path
         inkscape:connector-curvature="0"
         id="path52"
         style="fill:#e6e6e6;fill-opacity:1;fill-rule:nonzero;stroke:#000000;stroke-width:0.80000001;stroke-linecap:butt;stroke-linejoin:miter;stroke-miterlimit:4;stroke-dasharray:2.4, 0.8;stroke-dashoffset:0;stroke-opacity:1"
         d="m 80.562,40.891 c 0,-1.282 3.118,-2.325 6.961,-2.325 3.848,0 6.965,1.043 6.965,2.325" /></g><g
       transform="matrix(1,0,0,-1,-13.332829,92.706047)"
       id="g54"><path
         inkscape:connector-curvature="0"
         id="path56"
         style="fill:#e6e6e6;fill-opacity:1;fill-rule:nonzero;stroke:#000000;stroke-width:0.80000001;stroke-linecap:butt;stroke-linejoin:miter;stroke-miterlimit:4;stroke-dasharray:none;stroke-opacity:1"
         d="m 94.418,19.781 c 0,1.278 -3.117,2.321 -6.965,2.321 -3.844,0 -6.961,-1.043 -6.961,-2.321 0,-1.285 3.117,-2.324 6.961,-2.324 3.848,0 6.965,1.039 6.965,2.324 z" /></g><g
       transform="matrix(1,0,0,-1,-13.332829,92.706047)"
       id="g58"><path
         inkscape:connector-curvature="0"
         id="path60"
         style="fill:none;stroke:#000000;stroke-width:0.58743799;stroke-linecap:butt;stroke-linejoin:miter;stroke-miterlimit:4;stroke-dasharray:none;stroke-opacity:1"
         d="M 49.535,30.273 17.707,81.055" /></g><g
       transform="matrix(1,0,0,-1,-13.332829,92.706047)"
       id="g62"><path
         inkscape:connector-curvature="0"
         id="path64"
         style="fill:none;stroke:#000000;stroke-width:0.58743799;stroke-linecap:butt;stroke-linejoin:miter;stroke-miterlimit:4;stroke-dasharray:none;stroke-opacity:1"
         d="M 25.012,62.688 H 96.773" /></g><g
       transform="matrix(1,0,0,-1,-13.332829,92.706047)"
       id="g66"><path
         inkscape:connector-curvature="0"
         id="path68"
         style="fill:none;stroke:#000000;stroke-width:0.58743799;stroke-linecap:butt;stroke-linejoin:miter;stroke-miterlimit:4;stroke-dasharray:none;stroke-opacity:1"
         d="M 85.609,80.914 103.312,30.477" /></g><g
       transform="matrix(1,0,0,-1,-13.332829,92.706047)"
       id="g90"><path
         inkscape:connector-curvature="0"
         id="path92"
         style="fill:#e6e6e6;fill-opacity:1;fill-rule:nonzero;stroke:#000000;stroke-width:0.80000001;stroke-linecap:butt;stroke-linejoin:miter;stroke-miterlimit:4;stroke-dasharray:none;stroke-opacity:1"
         d="m 56.207,56.703 c 0,1.336 -3.246,2.418 -7.254,2.418 -4.008,0 -7.254,-1.082 -7.254,-2.418" /></g><g
       transform="matrix(1,0,0,-1,-13.332829,92.706047)"
       id="g94"><path
         inkscape:connector-curvature="0"
         id="path96"
         style="fill:#e6e6e6;fill-opacity:1;fill-rule:nonzero;stroke:#000000;stroke-width:0.80000001;stroke-linecap:butt;stroke-linejoin:miter;stroke-miterlimit:4;stroke-dasharray:none;stroke-opacity:1"
         d="m 56.137,34.66 0.035,22.133 c 0.035,1.246 -3.211,2.328 -7.219,2.328 -4.008,0 -7.254,-1.082 -7.293,-2.328 L 41.625,34.66" /></g><g
       transform="matrix(1,0,0,-1,-13.332829,92.706047)"
       id="g98"><path
         inkscape:connector-curvature="0"
         id="path100"
         style="fill:#e6e6e6;fill-opacity:1;fill-rule:nonzero;stroke:#000000;stroke-width:0.80000001;stroke-linecap:butt;stroke-linejoin:miter;stroke-miterlimit:4;stroke-dasharray:2.4, 0.8;stroke-dashoffset:0;stroke-opacity:1"
         d="m 41.699,56.656 c 0,-1.336 3.246,-2.418 7.254,-2.418 4.008,0 7.254,1.082 7.254,2.418" /></g><g
       transform="matrix(1,0,0,-1,-13.332829,92.706047)"
       id="g102"><path
         inkscape:connector-curvature="0"
         id="path104"
         style="fill:#e6e6e6;fill-opacity:1;fill-rule:nonzero;stroke:#000000;stroke-width:0.80000001;stroke-linecap:butt;stroke-linejoin:miter;stroke-miterlimit:4;stroke-dasharray:none;stroke-opacity:1"
         d="m 56.137,34.66 c 0,1.336 -3.25,2.422 -7.258,2.422 -4.004,0 -7.254,-1.086 -7.254,-2.422 0,-1.332 3.25,-2.418 7.254,-2.418 4.008,0 7.258,1.086 7.258,2.418 z" /></g><g
       transform="matrix(1,0,0,-1,-13.332829,92.706047)"
       id="g106"><path
         inkscape:connector-curvature="0"
         id="path108"
         style="fill:#e6e6e6;fill-opacity:1;fill-rule:nonzero;stroke:#000000;stroke-width:0.80000001;stroke-linecap:butt;stroke-linejoin:miter;stroke-miterlimit:4;stroke-dasharray:none;stroke-opacity:1"
         d="m 87.836,56.703 c 0,1.336 -3.246,2.418 -7.254,2.418 -4.008,0 -7.258,-1.082 -7.258,-2.418" /></g><g
       transform="matrix(1,0,0,-1,-13.332829,92.706047)"
       id="g110"><path
         inkscape:connector-curvature="0"
         id="path112"
         style="fill:#e6e6e6;fill-opacity:1;fill-rule:nonzero;stroke:#000000;stroke-width:0.80000001;stroke-linecap:butt;stroke-linejoin:miter;stroke-miterlimit:4;stroke-dasharray:none;stroke-opacity:1"
         d="m 87.762,34.66 0.039,22.133 c 0.035,1.246 -3.211,2.328 -7.219,2.328 -4.008,0 -7.258,-1.082 -7.293,-2.328 L 73.254,34.66" /></g><g
       transform="matrix(1,0,0,-1,-13.332829,92.706047)"
       id="g114"><path
         inkscape:connector-curvature="0"
         id="path116"
         style="fill:#e6e6e6;fill-opacity:1;fill-rule:nonzero;stroke:#000000;stroke-width:0.80000001;stroke-linecap:butt;stroke-linejoin:miter;stroke-miterlimit:4;stroke-dasharray:2.4, 0.8;stroke-dashoffset:0;stroke-opacity:1"
         d="m 73.324,56.656 c 0,-1.336 3.25,-2.418 7.258,-2.418 4.008,0 7.254,1.082 7.254,2.418" /></g><g
       transform="matrix(1,0,0,-1,-13.332829,92.706047)"
       id="g118"><path
         inkscape:connector-curvature="0"
         id="path120"
         style="fill:#e6e6e6;fill-opacity:1;fill-rule:nonzero;stroke:#000000;stroke-width:0.80000001;stroke-linecap:butt;stroke-linejoin:miter;stroke-miterlimit:4;stroke-dasharray:none;stroke-opacity:1"
         d="m 87.762,34.66 c 0,1.336 -3.246,2.422 -7.254,2.422 -4.008,0 -7.254,-1.086 -7.254,-2.422 0,-1.332 3.246,-2.418 7.254,-2.418 4.008,0 7.254,1.086 7.254,2.418 z" /></g><g
       transform="matrix(1,0,0,-1,-13.332829,92.706047)"
       id="g156"><path
         inkscape:connector-curvature="0"
         id="path158"
         style="fill:none;stroke:#000000;stroke-width:0.58743799;stroke-linecap:butt;stroke-linejoin:miter;stroke-miterlimit:4;stroke-dasharray:none;stroke-opacity:1"
         d="M 73.773,28.613 V 8.91" /></g><g
       transform="matrix(1,0,0,-1,-13.332829,92.706047)"
       id="g160"><path
         inkscape:connector-curvature="0"
         id="path162"
         style="fill:none;stroke:#000000;stroke-width:0.58743799;stroke-linecap:butt;stroke-linejoin:miter;stroke-miterlimit:4;stroke-dasharray:none;stroke-opacity:1"
         d="M 101.957,30.254 V 8.754" /></g><g
       transform="matrix(1,0,0,-1,-13.332829,91.206047)"
       id="g164"><path
         inkscape:connector-curvature="0"
         id="path166"
         style="fill:none;stroke:#000000;stroke-width:0.58743799;stroke-linecap:butt;stroke-linejoin:miter;stroke-miterlimit:4;stroke-dasharray:none;stroke-opacity:1"
         d="m 74.02,10.297 h 27.593" /></g><g
       transform="matrix(1,0,0,-1,-13.332829,91.206047)"
       id="g168"><path
         inkscape:connector-curvature="0"
         id="path170"
         style="fill:#000000;fill-opacity:1;fill-rule:evenodd;stroke:#000000;stroke-width:0.29371899;stroke-linecap:butt;stroke-linejoin:miter;stroke-miterlimit:4;stroke-dasharray:none;stroke-opacity:1"
         d="m 75.703,10.297 0.848,-0.848 -2.957,0.848 2.957,0.84 z" /></g><g
       transform="matrix(-1,0,0,1,-13.332829,91.206047)"
       id="g172"><path
         inkscape:connector-curvature="0"
         id="path174"
         style="fill:#000000;fill-opacity:1;fill-rule:evenodd;stroke:#000000;stroke-width:0.29371899;stroke-linecap:butt;stroke-linejoin:miter;stroke-miterlimit:4;stroke-dasharray:none;stroke-opacity:1"
         d="m -99.926,-10.297 0.844,-0.84 -2.953,0.84 2.953,0.848 z" /></g><g
       transform="matrix(1,0,0,-0.948581,-13.332829,92.706047)"
       id="g178"><path
         inkscape:connector-curvature="0"
         id="path180"
         style="fill:none;stroke:#000000;stroke-width:0.603149;stroke-linecap:butt;stroke-linejoin:miter;stroke-miterlimit:4;stroke-dasharray:none;stroke-opacity:1"
         d="M 15.273,83.389 H 90.926" /></g><rect
       style="color:#000000;clip-rule:nonzero;display:inline;overflow:visible;visibility:visible;opacity:1;isolation:auto;mix-blend-mode:normal;color-interpolation:sRGB;color-interpolation-filters:linearRGB;solid-color:#000000;solid-opacity:1;fill:#ffffff;fill-opacity:1;fill-rule:nonzero;stroke:none;stroke-width:10.36397362;stroke-linecap:butt;stroke-linejoin:miter;stroke-miterlimit:4;stroke-dasharray:none;stroke-dashoffset:0;stroke-opacity:1;marker:none;color-rendering:auto;image-rendering:auto;shape-rendering:auto;text-rendering:auto;enable-background:accumulate"
       id="rect4754"
       width="16.666037"
       height="14.027248"
       x="0.69441819"
       y="-24.026869"
       transform="scale(1,-1)" /><g
       transform="matrix(1,0,0,-1,-13.332829,92.706047)"
       id="g182"><path
         inkscape:connector-curvature="0"
         id="path184"
         style="fill:#e6e6e6;fill-opacity:1;fill-rule:nonzero;stroke:#000000;stroke-width:0.80000001;stroke-linecap:butt;stroke-linejoin:miter;stroke-miterlimit:4;stroke-dasharray:none;stroke-opacity:1"
         d="m 80.738,71.824 c 0,1.383 -3.363,2.504 -7.515,2.504 -4.153,0 -7.52,-1.121 -7.52,-2.504" /></g><g
       transform="matrix(1,0,0,-1,-13.332829,92.706047)"
       id="g186"><path
         inkscape:connector-curvature="0"
         id="path188"
         style="fill:#e6e6e6;fill-opacity:1;fill-rule:nonzero;stroke:#000000;stroke-width:0.80000001;stroke-linecap:butt;stroke-linejoin:miter;stroke-miterlimit:4;stroke-dasharray:none;stroke-opacity:1"
         d="m 80.664,48.984 0.039,22.934 c 0.035,1.289 -3.328,2.41 -7.48,2.41 -4.153,0 -7.52,-1.121 -7.559,-2.41 L 65.629,48.984" /></g><g
       transform="matrix(1,0,0,-1,-13.332829,92.706047)"
       id="g190"><path
         inkscape:connector-curvature="0"
         id="path192"
         style="fill:#e6e6e6;fill-opacity:1;fill-rule:nonzero;stroke:#000000;stroke-width:0.80000001;stroke-linecap:butt;stroke-linejoin:miter;stroke-miterlimit:4;stroke-dasharray:2.4, 0.8;stroke-dashoffset:0;stroke-opacity:1"
         d="m 65.703,71.773 c 0,-1.382 3.367,-2.503 7.52,-2.503 4.152,0 7.515,1.121 7.515,2.503" /></g><g
       transform="matrix(1,0,0,-1,-13.332829,92.706047)"
       id="g194"><path
         inkscape:connector-curvature="0"
         id="path196"
         style="fill:#e6e6e6;fill-opacity:1;fill-rule:nonzero;stroke:#000000;stroke-width:0.80000001;stroke-linecap:butt;stroke-linejoin:miter;stroke-miterlimit:4;stroke-dasharray:none;stroke-opacity:1"
         d="m 80.664,48.984 c 0,1.387 -3.367,2.508 -7.519,2.508 -4.149,0 -7.516,-1.121 -7.516,-2.508 0,-1.382 3.367,-2.504 7.516,-2.504 4.152,0 7.519,1.122 7.519,2.504 z" /></g><g
       transform="matrix(1,0,0,-1,-13.332829,92.706047)"
       id="g198"><path
         inkscape:connector-curvature="0"
         id="path200"
         style="fill:#e6e6e6;fill-opacity:1;fill-rule:nonzero;stroke:#000000;stroke-width:0.80000001;stroke-linecap:butt;stroke-linejoin:miter;stroke-miterlimit:4;stroke-dasharray:none;stroke-opacity:1"
         d="m 47.547,71.824 c 0,1.383 -3.367,2.504 -7.52,2.504 -4.152,0 -7.515,-1.121 -7.515,-2.504" /></g><g
       transform="matrix(1,0,0,-1,-13.332829,92.706047)"
       id="g202"><path
         inkscape:connector-curvature="0"
         id="path204"
         style="fill:#e6e6e6;fill-opacity:1;fill-rule:nonzero;stroke:#000000;stroke-width:0.80000001;stroke-linecap:butt;stroke-linejoin:miter;stroke-miterlimit:4;stroke-dasharray:none;stroke-opacity:1"
         d="m 47.469,48.984 0.039,22.934 c 0.039,1.289 -3.328,2.41 -7.481,2.41 -4.152,0 -7.515,-1.121 -7.554,-2.41 L 32.434,48.984" /></g><g
       transform="matrix(1,0,0,-1,-13.332829,92.706047)"
       id="g206"><path
         inkscape:connector-curvature="0"
         id="path208"
         style="fill:#e6e6e6;fill-opacity:1;fill-rule:nonzero;stroke:#000000;stroke-width:0.80000001;stroke-linecap:butt;stroke-linejoin:miter;stroke-miterlimit:4;stroke-dasharray:2.4, 0.8;stroke-dashoffset:0;stroke-opacity:1"
         d="m 32.512,71.773 c 0,-1.382 3.363,-2.503 7.515,-2.503 4.153,0 7.52,1.121 7.52,2.503" /></g><g
       transform="matrix(1,0,0,-1,-13.332829,92.706047)"
       id="g210"><path
         inkscape:connector-curvature="0"
         id="path212"
         style="fill:#e6e6e6;fill-opacity:1;fill-rule:nonzero;stroke:#000000;stroke-width:0.80000001;stroke-linecap:butt;stroke-linejoin:miter;stroke-miterlimit:4;stroke-dasharray:none;stroke-opacity:1"
         d="m 47.469,48.984 c 0,1.387 -3.364,2.508 -7.516,2.508 -4.152,0 -7.519,-1.121 -7.519,-2.508 0,-1.382 3.367,-2.504 7.519,-2.504 4.152,0 7.516,1.122 7.516,2.504 z" /></g><path
       d="M -22.74722,13.604826 H 1.940171"
       style="fill:none;stroke:#000000;stroke-width:1.37796009;stroke-linecap:butt;stroke-linejoin:miter;stroke-miterlimit:4;stroke-dasharray:none;stroke-opacity:1"
       id="path28-2"
       inkscape:connector-curvature="0" /><path
       d="M -2.0274885,13.604828 -4.0105014,15.58825 2.932899,13.604828 -4.0105014,11.62181 Z"
       style="fill:#000000;fill-opacity:1;fill-rule:evenodd;stroke:#000000;stroke-width:0.73491216;stroke-linecap:butt;stroke-linejoin:miter;stroke-miterlimit:4;stroke-dasharray:none;stroke-opacity:1"
       id="path32-2"
       inkscape:connector-curvature="0" /><path
       d="M -22.844802,13.608799 V 38.296595"
       style="fill:none;stroke:#000000;stroke-width:1.37796009;stroke-linecap:butt;stroke-linejoin:miter;stroke-miterlimit:4;stroke-dasharray:none;stroke-opacity:1"
       id="path36-1"
       inkscape:connector-curvature="0"
       inkscape:transform-center-x="-0.21103421"
       inkscape:transform-center-y="-21.155812" /><path
       d="m -22.844802,34.330157 -1.983421,-1.984635 1.983421,6.943392 1.984638,-6.943392 z"
       style="fill:#000000;fill-opacity:1;fill-rule:evenodd;stroke:#000000;stroke-width:0.73491216;stroke-linecap:butt;stroke-linejoin:miter;stroke-miterlimit:4;stroke-dasharray:none;stroke-opacity:1"
       id="path40-6"
       inkscape:connector-curvature="0"
       inkscape:transform-center-x="-0.21184499"
       inkscape:transform-center-y="-34.308506" /><text
       id="text44"
       style="font-variant:normal;font-weight:bold;font-size:8.22224045px;font-family:'URW Palladio L';-inkscape-font-specification:URWPalladioL-Bold;writing-mode:lr-tb;fill:#000000;fill-opacity:1;fill-rule:nonzero;stroke:none;stroke-width:0.5619694"
       transform="scale(1.0000207,-0.9999793)"
       x="-25.339798"
       y="-42.303787"><tspan
         id="tspan42"
         y="-42.303787"
         x="-25.339798"
         style="stroke-width:0.5619694">E</tspan></text>
<text
       y="-10.561957"
       x="4.8236885"
       transform="scale(1.0000207,-0.9999793)"
       style="font-variant:normal;font-weight:bold;font-size:8.22224045px;font-family:'URW Palladio L';-inkscape-font-specification:URWPalladioL-Bold;writing-mode:lr-tb;fill:#000000;fill-opacity:1;fill-rule:nonzero;stroke:none;stroke-width:0.5619694"
       id="text4286"><tspan
         style="stroke-width:0.5619694"
         x="4.8236885"
         y="-10.561957"
         id="tspan4282">H</tspan><tspan
         style="stroke-width:0.5619694"
         x="39.656506"
         y="25.507532"
         id="tspan4284" /></text>
<text
       id="text4292"
       style="font-variant:normal;font-weight:bold;font-size:8.22224045px;font-family:'URW Palladio L';-inkscape-font-specification:URWPalladioL-Bold;writing-mode:lr-tb;fill:#000000;fill-opacity:1;fill-rule:nonzero;stroke:none;stroke-width:0.5619694"
       transform="scale(1.0000207,-0.9999793)"
       x="-44.269207"
       y="-68.64061"><tspan
         id="tspan4290"
         y="-32.571129"
         x="-9.4364052"
         style="stroke-width:0.5619694">K</tspan></text>
<path
       inkscape:transform-center-y="-12.572846"
       inkscape:transform-center-x="-9.6614987"
       inkscape:connector-curvature="0"
       id="path4665"
       style="fill:none;stroke:#000000;stroke-width:1.37796009;stroke-linecap:butt;stroke-linejoin:miter;stroke-miterlimit:4;stroke-dasharray:none;stroke-opacity:1"
       d="m -22.626349,13.113159 11.128297,14.783384" /><path
       inkscape:transform-center-y="-26.419555"
       inkscape:transform-center-x="-19.83309"
       inkscape:connector-curvature="0"
       id="path4667"
       style="fill:#000000;fill-opacity:1;fill-rule:evenodd;stroke:#000000;stroke-width:0.73491216;stroke-linecap:butt;stroke-linejoin:miter;stroke-miterlimit:4;stroke-dasharray:none;stroke-opacity:1"
       d="m -12.327089,26.632473 -2.779426,-0.384093 5.7740124,4.336531 -2.6112264,-6.73283 z" /><text
       xml:space="preserve"
       style="font-style:normal;font-variant:normal;font-weight:500;font-stretch:normal;font-size:12px;line-height:125%;font-family:'URW Palladio L';-inkscape-font-specification:'URW Palladio L Medium';letter-spacing:0px;word-spacing:0px;fill:#000000;fill-opacity:1;stroke:none;stroke-width:0.75px;stroke-linecap:butt;stroke-linejoin:miter;stroke-opacity:1"
       x="85.274551"
       y="-17.777102"
       id="text4675"
       sodipodi:linespacing="125%"
       transform="scale(1,-1)"><tspan
         sodipodi:role="line"
         id="tspan4673"
         x="85.274551"
         y="-17.777102"
         style="stroke-width:0.75px">1<tspan
   style="font-size:48.75000119%;baseline-shift:super"
   id="tspan4689">st</tspan> cell</tspan></text>
<text
       transform="scale(1,-1)"
       sodipodi:linespacing="125%"
       id="text4679"
       y="-47.457592"
       x="92.560654"
       style="font-style:normal;font-variant:normal;font-weight:500;font-stretch:normal;font-size:9.96971416px;line-height:125%;font-family:'URW Palladio L';-inkscape-font-specification:'URW Palladio L Medium';letter-spacing:0px;word-spacing:0px;fill:#000000;fill-opacity:1;stroke:none;stroke-width:0.62310714px;stroke-linecap:butt;stroke-linejoin:miter;stroke-opacity:1"
       xml:space="preserve"><tspan
         style="stroke-width:0.62310714px"
         y="-47.457592"
         x="92.560654"
         id="tspan4677"
         sodipodi:role="line">3<tspan
   style="font-size:4.86023617px;baseline-shift:super;stroke-width:0.62310714px"
   id="tspan4687">rd</tspan> cell</tspan></text>
<text
       sodipodi:linespacing="125%"
       id="text4679-3"
       y="-82.941246"
       x="72.913902"
       style="font-style:normal;font-variant:normal;font-weight:500;font-stretch:normal;font-size:12px;line-height:125%;font-family:'URW Palladio L';-inkscape-font-specification:'URW Palladio L Medium';letter-spacing:0px;word-spacing:0px;fill:#000000;fill-opacity:1;stroke:none;stroke-width:0.75px;stroke-linecap:butt;stroke-linejoin:miter;stroke-opacity:1"
       xml:space="preserve"
       transform="scale(1,-1)"><tspan
         style="font-style:italic;stroke-width:0.75px"
         y="-82.941246"
         x="72.913902"
         id="tspan4677-1"
         sodipodi:role="line">a</tspan></text>
<text
       sodipodi:linespacing="125%"
       id="text4679-0"
       y="-1.537997"
       x="-17.656443"
       style="font-style:normal;font-variant:normal;font-weight:500;font-stretch:normal;font-size:12px;line-height:125%;font-family:'URW Palladio L';-inkscape-font-specification:'URW Palladio L Medium';letter-spacing:0px;word-spacing:0px;fill:#a40000;fill-opacity:1;stroke:none;stroke-width:0.75px;stroke-linecap:butt;stroke-linejoin:miter;stroke-opacity:1"
       xml:space="preserve"
       transform="scale(1,-1)"><tspan
         style="fill:#a40000;stroke-width:0.75px"
         y="-1.537997"
         x="-17.656443"
         id="tspan4677-8"
         sodipodi:role="line">recorded electric field</tspan></text>
</g></svg>