<?xml version="1.0" encoding="UTF-8" standalone="no"?>
<!-- Created with Inkscape (http://www.inkscape.org/) -->

<svg
   xmlns:dc="http://purl.org/dc/elements/1.1/"
   xmlns:cc="http://creativecommons.org/ns#"
   xmlns:rdf="http://www.w3.org/1999/02/22-rdf-syntax-ns#"
   xmlns:svg="http://www.w3.org/2000/svg"
   xmlns="http://www.w3.org/2000/svg"
   xmlns:sodipodi="http://sodipodi.sourceforge.net/DTD/sodipodi-0.dtd"
   xmlns:inkscape="http://www.inkscape.org/namespaces/inkscape"
   version="1.1"
   id="svg2"
   inkscape:version="0.91+devel r"
   xml:space="preserve"
   width="521.76019"
   height="330.99725"
   viewBox="0 0 521.76019 330.99725"
   sodipodi:docname="EWire_plasmaF_radiusscan.svg"><metadata
     id="metadata8"><rdf:RDF><cc:Work
         rdf:about=""><dc:format>image/svg+xml</dc:format><dc:type
           rdf:resource="http://purl.org/dc/dcmitype/StillImage" /><dc:title /></cc:Work></rdf:RDF></metadata><defs
     id="defs6"><clipPath
       clipPathUnits="userSpaceOnUse"
       id="clipPath26"><path
         d="M 43.469,237.283 H 378.266 V 35.685 H 43.469 Z"
         id="path24"
         inkscape:connector-curvature="0" /></clipPath><clipPath
       clipPathUnits="userSpaceOnUse"
       id="clipPath36"><path
         d="M 46,74 H 261 V 218 H 46 Z"
         id="path34"
         inkscape:connector-curvature="0" /></clipPath><clipPath
       clipPathUnits="userSpaceOnUse"
       id="clipPath46"><path
         d="m 46.914,81.09 h 6.5 v -6.5 h -6.5 z"
         id="path44"
         inkscape:connector-curvature="0" /></clipPath><clipPath
       clipPathUnits="userSpaceOnUse"
       id="clipPath56"><path
         d="m 46,74 h 8 v 8 h -8 z"
         id="path54"
         inkscape:connector-curvature="0" /></clipPath><clipPath
       clipPathUnits="userSpaceOnUse"
       id="clipPath70"><path
         d="m 53.609,88.434 h 6.5 v -6.5 h -6.5 z"
         id="path68"
         inkscape:connector-curvature="0" /></clipPath><clipPath
       clipPathUnits="userSpaceOnUse"
       id="clipPath80"><path
         d="m 53,81 h 8 v 8 h -8 z"
         id="path78"
         inkscape:connector-curvature="0" /></clipPath><clipPath
       clipPathUnits="userSpaceOnUse"
       id="clipPath94"><path
         d="m 60.305,93.082 h 6.5 v -6.5 h -6.5 z"
         id="path92"
         inkscape:connector-curvature="0" /></clipPath><clipPath
       clipPathUnits="userSpaceOnUse"
       id="clipPath104"><path
         d="m 60,86 h 7 v 8 h -7 z"
         id="path102"
         inkscape:connector-curvature="0" /></clipPath><clipPath
       clipPathUnits="userSpaceOnUse"
       id="clipPath118"><path
         d="m 67,97.41 h 6.5 v -6.5 H 67 Z"
         id="path116"
         inkscape:connector-curvature="0" /></clipPath><clipPath
       clipPathUnits="userSpaceOnUse"
       id="clipPath128"><path
         d="m 67,90 h 7 v 8 h -7 z"
         id="path126"
         inkscape:connector-curvature="0" /></clipPath><clipPath
       clipPathUnits="userSpaceOnUse"
       id="clipPath142"><path
         d="m 67,96.395 h 6.5 v -6.5 H 67 Z"
         id="path140"
         inkscape:connector-curvature="0" /></clipPath><clipPath
       clipPathUnits="userSpaceOnUse"
       id="clipPath152"><path
         d="m 67,89 h 7 v 8 h -7 z"
         id="path150"
         inkscape:connector-curvature="0" /></clipPath><clipPath
       clipPathUnits="userSpaceOnUse"
       id="clipPath166"><path
         d="m 120.57,124 h 6.5 v -6.5 h -6.5 z"
         id="path164"
         inkscape:connector-curvature="0" /></clipPath><clipPath
       clipPathUnits="userSpaceOnUse"
       id="clipPath176"><path
         d="m 120,117 h 8 v 7 h -8 z"
         id="path174"
         inkscape:connector-curvature="0" /></clipPath><clipPath
       clipPathUnits="userSpaceOnUse"
       id="clipPath190"><path
         d="m 147.352,138.543 h 6.5 v -6.5 h -6.5 z"
         id="path188"
         inkscape:connector-curvature="0" /></clipPath><clipPath
       clipPathUnits="userSpaceOnUse"
       id="clipPath200"><path
         d="m 147,132 h 7 v 7 h -7 z"
         id="path198"
         inkscape:connector-curvature="0" /></clipPath><clipPath
       clipPathUnits="userSpaceOnUse"
       id="clipPath214"><path
         d="m 174.137,154.633 h 6.5 v -6.5 h -6.5 z"
         id="path212"
         inkscape:connector-curvature="0" /></clipPath><clipPath
       clipPathUnits="userSpaceOnUse"
       id="clipPath224"><path
         d="m 174,148 h 7 v 7 h -7 z"
         id="path222"
         inkscape:connector-curvature="0" /></clipPath><clipPath
       clipPathUnits="userSpaceOnUse"
       id="clipPath238"><path
         d="m 93.785,111.023 h 6.5 v -6.5 h -6.5 z"
         id="path236"
         inkscape:connector-curvature="0" /></clipPath><clipPath
       clipPathUnits="userSpaceOnUse"
       id="clipPath248"><path
         d="m 93,104 h 8 v 8 h -8 z"
         id="path246"
         inkscape:connector-curvature="0" /></clipPath><clipPath
       clipPathUnits="userSpaceOnUse"
       id="clipPath262"><path
         d="m 254.488,217.395 h 6.5 v -6.5 h -6.5 z"
         id="path260"
         inkscape:connector-curvature="0" /></clipPath><clipPath
       clipPathUnits="userSpaceOnUse"
       id="clipPath272"><path
         d="m 254,210 h 7 v 8 h -7 z"
         id="path270"
         inkscape:connector-curvature="0" /></clipPath><clipPath
       clipPathUnits="userSpaceOnUse"
       id="clipPath288"><path
         d="m 43,62 h 334 v 71 H 43 Z"
         id="path286"
         inkscape:connector-curvature="0" /></clipPath><clipPath
       clipPathUnits="userSpaceOnUse"
       id="clipPath304"><path
         d="M 42,64 H 258 V 249 H 42 Z"
         id="path302"
         inkscape:connector-curvature="0" /></clipPath><clipPath
       clipPathUnits="userSpaceOnUse"
       id="clipPath588"><path
         d="m 222.141,82.127 h 6.5 v -6.5 h -6.5 z"
         id="path586"
         inkscape:connector-curvature="0" /></clipPath><clipPath
       clipPathUnits="userSpaceOnUse"
       id="clipPath598"><path
         d="m 222,76 h 7 v 7 h -7 z"
         id="path596"
         inkscape:connector-curvature="0" /></clipPath><clipPath
       clipPathUnits="userSpaceOnUse"
       id="clipPath612"><path
         d="m 236.141,82.127 h 6.5 v -6.5 h -6.5 z"
         id="path610"
         inkscape:connector-curvature="0" /></clipPath><clipPath
       clipPathUnits="userSpaceOnUse"
       id="clipPath622"><path
         d="m 236,76 h 7 v 7 h -7 z"
         id="path620"
         inkscape:connector-curvature="0" /></clipPath></defs><sodipodi:namedview
     pagecolor="#ffffff"
     bordercolor="#666666"
     borderopacity="1"
     objecttolerance="10"
     gridtolerance="10"
     guidetolerance="10"
     inkscape:pageopacity="0"
     inkscape:pageshadow="2"
     inkscape:window-width="1366"
     inkscape:window-height="719"
     inkscape:document-units="px"
     id="namedview4"
     showgrid="false"
     inkscape:zoom="9.7414915"
     inkscape:cx="315.5"
     inkscape:cy="24.196156"
     inkscape:window-x="0"
     inkscape:window-y="0"
     inkscape:window-maximized="1"
     inkscape:current-layer="g10" /><g
     id="g10"
     inkscape:groupmode="layer"
     inkscape:label="EWire_plasmaF_radiusscan"
     transform="matrix(1.3333333,0,0,-1.3333333,0,330.99725)"><g
       id="g20"><g
         id="g22"
         clip-path="url(#clipPath26)"><g
           id="g28"
           transform="translate(0,-0.75206)"><g
             id="g30"><g
               id="g32"
               clip-path="url(#clipPath36)"><g
                 id="g38" /><g
                 id="g40"><g
                   id="g42"
                   clip-path="url(#clipPath46)"><g
                     id="g48"><g
                       id="g50"><g
                         id="g52"
                         clip-path="url(#clipPath56)"><g
                           id="g58"><g
                             id="g60"
                             transform="translate(0,249)"><path
                               d="m 50.164,-174.16 c 0.793,0 1.559,0.316 2.121,0.879 0.563,0.562 0.879,1.328 0.879,2.121 0,0.797 -0.316,1.558 -0.879,2.121 -0.562,0.562 -1.328,0.879 -2.121,0.879 -0.797,0 -1.559,-0.317 -2.121,-0.879 -0.563,-0.563 -0.879,-1.324 -0.879,-2.121 0,-0.793 0.316,-1.559 0.879,-2.121 0.562,-0.563 1.324,-0.879 2.121,-0.879 z"
                               style="fill:#008000;fill-opacity:1;fill-rule:nonzero;stroke:#000000;stroke-width:0.5;stroke-linecap:butt;stroke-linejoin:round;stroke-miterlimit:10;stroke-dasharray:none;stroke-opacity:1"
                               id="path62"
                               inkscape:connector-curvature="0" /></g></g></g></g></g></g></g><g
                 id="g64"><g
                   id="g66"
                   clip-path="url(#clipPath70)"><g
                     id="g72"><g
                       id="g74"><g
                         id="g76"
                         clip-path="url(#clipPath80)"><g
                           id="g82"><g
                             id="g84"
                             transform="translate(0,249)"><path
                               d="m 56.859,-166.816 c 0.797,0 1.559,0.312 2.121,0.875 0.563,0.562 0.879,1.328 0.879,2.125 0,0.793 -0.316,1.558 -0.879,2.121 -0.562,0.562 -1.324,0.879 -2.121,0.879 -0.797,0 -1.558,-0.317 -2.121,-0.879 -0.562,-0.563 -0.879,-1.328 -0.879,-2.121 0,-0.797 0.317,-1.563 0.879,-2.125 0.563,-0.563 1.324,-0.875 2.121,-0.875 z"
                               style="fill:#008000;fill-opacity:1;fill-rule:nonzero;stroke:#000000;stroke-width:0.5;stroke-linecap:butt;stroke-linejoin:round;stroke-miterlimit:10;stroke-dasharray:none;stroke-opacity:1"
                               id="path86"
                               inkscape:connector-curvature="0" /></g></g></g></g></g></g></g><g
                 id="g88"><g
                   id="g90"
                   clip-path="url(#clipPath94)"><g
                     id="g96"><g
                       id="g98"><g
                         id="g100"
                         clip-path="url(#clipPath104)"><g
                           id="g106"><g
                             id="g108"
                             transform="translate(0,249)"><path
                               d="m 63.555,-162.168 c 0.797,0 1.558,0.316 2.121,0.879 0.562,0.562 0.879,1.324 0.879,2.121 0,0.797 -0.317,1.559 -0.879,2.121 -0.563,0.563 -1.324,0.879 -2.121,0.879 -0.797,0 -1.559,-0.316 -2.121,-0.879 -0.563,-0.562 -0.879,-1.324 -0.879,-2.121 0,-0.797 0.316,-1.559 0.879,-2.121 0.562,-0.563 1.324,-0.879 2.121,-0.879 z"
                               style="fill:#008000;fill-opacity:1;fill-rule:nonzero;stroke:#000000;stroke-width:0.5;stroke-linecap:butt;stroke-linejoin:round;stroke-miterlimit:10;stroke-dasharray:none;stroke-opacity:1"
                               id="path110"
                               inkscape:connector-curvature="0" /></g></g></g></g></g></g></g><g
                 id="g112"><g
                   id="g114"
                   clip-path="url(#clipPath118)"><g
                     id="g120"><g
                       id="g122"><g
                         id="g124"
                         clip-path="url(#clipPath128)"><g
                           id="g130"><g
                             id="g132"
                             transform="translate(0,249)"><path
                               d="m 70.25,-157.84 c 0.797,0 1.559,0.317 2.121,0.879 0.563,0.563 0.879,1.324 0.879,2.121 0,0.797 -0.316,1.559 -0.879,2.121 -0.562,0.563 -1.324,0.879 -2.121,0.879 -0.793,0 -1.559,-0.316 -2.121,-0.879 -0.563,-0.562 -0.879,-1.324 -0.879,-2.121 0,-0.797 0.316,-1.558 0.879,-2.121 0.562,-0.562 1.328,-0.879 2.121,-0.879 z"
                               style="fill:#008000;fill-opacity:1;fill-rule:nonzero;stroke:#000000;stroke-width:0.5;stroke-linecap:butt;stroke-linejoin:round;stroke-miterlimit:10;stroke-dasharray:none;stroke-opacity:1"
                               id="path134"
                               inkscape:connector-curvature="0" /></g></g></g></g></g></g></g><g
                 id="g136"><g
                   id="g138"
                   clip-path="url(#clipPath142)"><g
                     id="g144"><g
                       id="g146"><g
                         id="g148"
                         clip-path="url(#clipPath152)"><g
                           id="g154"><g
                             id="g156"
                             transform="translate(0,249)"><path
                               d="m 70.25,-158.855 c 0.797,0 1.559,0.316 2.121,0.878 0.563,0.563 0.879,1.325 0.879,2.122 0,0.796 -0.316,1.558 -0.879,2.121 -0.562,0.562 -1.324,0.879 -2.121,0.879 -0.793,0 -1.559,-0.317 -2.121,-0.879 -0.563,-0.563 -0.879,-1.325 -0.879,-2.121 0,-0.797 0.316,-1.559 0.879,-2.122 0.562,-0.562 1.328,-0.878 2.121,-0.878 z"
                               style="fill:#008000;fill-opacity:1;fill-rule:nonzero;stroke:#000000;stroke-width:0.5;stroke-linecap:butt;stroke-linejoin:round;stroke-miterlimit:10;stroke-dasharray:none;stroke-opacity:1"
                               id="path158"
                               inkscape:connector-curvature="0" /></g></g></g></g></g></g></g><g
                 id="g160"><g
                   id="g162"
                   clip-path="url(#clipPath166)"><g
                     id="g168"><g
                       id="g170"><g
                         id="g172"
                         clip-path="url(#clipPath176)"><g
                           id="g178"><g
                             id="g180"
                             transform="translate(0,249)"><path
                               d="m 123.82,-131.25 c 0.793,0 1.559,0.316 2.121,0.879 0.563,0.562 0.879,1.324 0.879,2.121 0,0.793 -0.316,1.559 -0.879,2.121 -0.562,0.563 -1.328,0.879 -2.121,0.879 -0.797,0 -1.558,-0.316 -2.121,-0.879 -0.562,-0.562 -0.879,-1.328 -0.879,-2.121 0,-0.797 0.317,-1.559 0.879,-2.121 0.563,-0.563 1.324,-0.879 2.121,-0.879 z"
                               style="fill:#008000;fill-opacity:1;fill-rule:nonzero;stroke:#000000;stroke-width:0.5;stroke-linecap:butt;stroke-linejoin:round;stroke-miterlimit:10;stroke-dasharray:none;stroke-opacity:1"
                               id="path182"
                               inkscape:connector-curvature="0" /></g></g></g></g></g></g></g><g
                 id="g184"><g
                   id="g186"
                   clip-path="url(#clipPath190)"><g
                     id="g192"><g
                       id="g194"><g
                         id="g196"
                         clip-path="url(#clipPath200)"><g
                           id="g202"><g
                             id="g204"
                             transform="translate(0,249)"><path
                               d="m 150.602,-116.707 c 0.796,0 1.558,0.316 2.121,0.879 0.562,0.562 0.879,1.324 0.879,2.121 0,0.797 -0.317,1.559 -0.879,2.121 -0.563,0.563 -1.325,0.879 -2.121,0.879 -0.793,0 -1.559,-0.316 -2.122,-0.879 -0.562,-0.562 -0.878,-1.324 -0.878,-2.121 0,-0.797 0.316,-1.559 0.878,-2.121 0.563,-0.563 1.329,-0.879 2.122,-0.879 z"
                               style="fill:#008000;fill-opacity:1;fill-rule:nonzero;stroke:#000000;stroke-width:0.5;stroke-linecap:butt;stroke-linejoin:round;stroke-miterlimit:10;stroke-dasharray:none;stroke-opacity:1"
                               id="path206"
                               inkscape:connector-curvature="0" /></g></g></g></g></g></g></g><g
                 id="g208"><g
                   id="g210"
                   clip-path="url(#clipPath214)"><g
                     id="g216"><g
                       id="g218"><g
                         id="g220"
                         clip-path="url(#clipPath224)"><g
                           id="g226"><g
                             id="g228"
                             transform="translate(0,249)"><path
                               d="m 177.387,-100.617 c 0.797,0 1.558,0.316 2.121,0.879 0.562,0.562 0.879,1.328 0.879,2.121 0,0.797 -0.317,1.558 -0.879,2.121 -0.563,0.562 -1.324,0.879 -2.121,0.879 -0.797,0 -1.559,-0.317 -2.121,-0.879 -0.563,-0.563 -0.879,-1.324 -0.879,-2.121 0,-0.793 0.316,-1.559 0.879,-2.121 0.562,-0.563 1.324,-0.879 2.121,-0.879 z"
                               style="fill:#008000;fill-opacity:1;fill-rule:nonzero;stroke:#000000;stroke-width:0.5;stroke-linecap:butt;stroke-linejoin:round;stroke-miterlimit:10;stroke-dasharray:none;stroke-opacity:1"
                               id="path230"
                               inkscape:connector-curvature="0" /></g></g></g></g></g></g></g><g
                 id="g232"><g
                   id="g234"
                   clip-path="url(#clipPath238)"><g
                     id="g240"><g
                       id="g242"><g
                         id="g244"
                         clip-path="url(#clipPath248)"><g
                           id="g250"><g
                             id="g252"
                             transform="translate(0,249)"><path
                               d="m 97.035,-144.227 c 0.797,0 1.559,0.317 2.121,0.879 0.563,0.563 0.879,1.325 0.879,2.121 0,0.793 -0.316,1.559 -0.879,2.122 -0.562,0.562 -1.324,0.878 -2.121,0.878 -0.797,0 -1.558,-0.316 -2.121,-0.878 -0.562,-0.563 -0.879,-1.329 -0.879,-2.122 0,-0.796 0.317,-1.558 0.879,-2.121 0.563,-0.562 1.324,-0.879 2.121,-0.879 z"
                               style="fill:#008000;fill-opacity:1;fill-rule:nonzero;stroke:#000000;stroke-width:0.5;stroke-linecap:butt;stroke-linejoin:round;stroke-miterlimit:10;stroke-dasharray:none;stroke-opacity:1"
                               id="path254"
                               inkscape:connector-curvature="0" /></g></g></g></g></g></g></g><g
                 id="g256"><g
                   id="g258"
                   clip-path="url(#clipPath262)"><g
                     id="g264"><g
                       id="g266"><g
                         id="g268"
                         clip-path="url(#clipPath272)"><g
                           id="g274"><g
                             id="g276"
                             transform="translate(0,249)"><path
                               d="m 257.738,-37.855 c 0.797,0 1.559,0.316 2.121,0.878 0.563,0.563 0.879,1.325 0.879,2.122 0,0.793 -0.316,1.558 -0.879,2.121 -0.562,0.562 -1.324,0.879 -2.121,0.879 -0.793,0 -1.558,-0.317 -2.121,-0.879 -0.562,-0.563 -0.879,-1.328 -0.879,-2.121 0,-0.797 0.317,-1.559 0.879,-2.122 0.563,-0.562 1.328,-0.878 2.121,-0.878 z"
                               style="fill:#008000;fill-opacity:1;fill-rule:nonzero;stroke:#000000;stroke-width:0.5;stroke-linecap:butt;stroke-linejoin:round;stroke-miterlimit:10;stroke-dasharray:none;stroke-opacity:1"
                               id="path278"
                               inkscape:connector-curvature="0" /></g></g></g></g></g></g></g></g></g></g><g
           id="g280"
           transform="translate(0,-0.75206)"><g
             id="g282"><g
               id="g284"
               clip-path="url(#clipPath288)"><g
                 id="g290"><g
                   id="g292"
                   transform="translate(0,249)"><path
                     d="m 43.535,-186.082 0.336,3.027 0.668,2.168 0.672,1.266 1.004,1.34 1.34,1.308 1.675,1.266 2.012,1.219 2.68,1.332 3.351,1.386 4.02,1.415 5.027,1.523 6.364,1.684 7.707,1.796 9.718,2.028 12.063,2.273 15.078,2.606 19.434,3.117 27.14,4.113 108.895,16.281 27.14,4.399 23.793,4.078 21.442,3.891 19.769,3.812 13.403,2.727"
                     style="fill:none;stroke:#008000;stroke-width:1;stroke-linecap:butt;stroke-linejoin:round;stroke-miterlimit:10;stroke-dasharray:1, 3;stroke-dashoffset:0;stroke-opacity:1"
                     id="path294"
                     inkscape:connector-curvature="0" /></g></g></g></g></g><g
           id="g296"
           transform="translate(0,-0.75206)"><g
             id="g298"><g
               id="g300"
               clip-path="url(#clipPath304)"><g
                 id="g306"><g
                   id="g308"
                   transform="translate(0,249)"><path
                     d="m 43.535,-183.832 0.336,3.992 0.668,3.031 0.672,1.848 1.004,2.023 1.34,2.051 1.675,2.055 2.012,2.055 2.344,2.062 3.016,2.336 3.687,2.543 4.356,2.738 5.695,3.301 7.371,4.004 10.723,5.547 30.824,15.816 10.722,5.813 9.719,5.519 8.711,5.2 8.043,5.054 7.707,5.11 7.035,4.918 6.7,4.945 6.703,5.226 6.367,5.258 6.031,5.274 5.695,5.269 5.696,5.586 5.363,5.574 5.023,5.536 5.028,5.863 4.691,5.801 4.692,6.148 4.691,6.531 4.355,6.446 4.356,6.847 4.019,6.711 4.024,7.133 1.973,3.668"
                     style="fill:none;stroke:#008000;stroke-width:1;stroke-linecap:square;stroke-linejoin:round;stroke-miterlimit:10;stroke-dasharray:none;stroke-opacity:1"
                     id="path310"
                     inkscape:connector-curvature="0" /></g></g></g></g></g></g></g><g
       transform="translate(0,248.24794)"
       id="g314"><path
         inkscape:connector-curvature="0"
         id="path316"
         style="fill:none;stroke:#000000;stroke-width:0.5;stroke-linecap:butt;stroke-linejoin:round;stroke-miterlimit:10;stroke-dasharray:none;stroke-opacity:1"
         d="m 43.469,-212.562 v 4" /></g><g
       transform="translate(0,248.24794)"
       id="g318"><path
         inkscape:connector-curvature="0"
         id="path320"
         style="fill:none;stroke:#000000;stroke-width:0.5;stroke-linecap:butt;stroke-linejoin:round;stroke-miterlimit:10;stroke-dasharray:none;stroke-opacity:1"
         d="m 43.469,-10.965 v -4" /></g><text
       id="text324"
       style="font-variant:normal;font-weight:normal;font-size:11.95516682px;font-family:'LM Roman 10';-inkscape-font-specification:LMRoman10-Regular;writing-mode:lr-tb;fill:#000000;fill-opacity:1;fill-rule:nonzero;stroke:none"
       transform="scale(1,-1)"
       x="40.5406"
       y="-24.155163"><tspan
         id="tspan322"
         y="-24.155163"
         x="40.5406">0</tspan></text>
<g
       transform="translate(0,248.24794)"
       id="g326"><path
         inkscape:connector-curvature="0"
         id="path328"
         style="fill:none;stroke:#000000;stroke-width:0.5;stroke-linecap:butt;stroke-linejoin:round;stroke-miterlimit:10;stroke-dasharray:none;stroke-opacity:1"
         d="m 110.426,-212.562 v 4" /></g><g
       transform="translate(0,248.24794)"
       id="g330"><path
         inkscape:connector-curvature="0"
         id="path332"
         style="fill:none;stroke:#000000;stroke-width:0.5;stroke-linecap:butt;stroke-linejoin:round;stroke-miterlimit:10;stroke-dasharray:none;stroke-opacity:1"
         d="m 110.426,-10.965 v -4" /></g><text
       id="text336"
       style="font-variant:normal;font-weight:normal;font-size:11.95516682px;font-family:'LM Roman 10';-inkscape-font-specification:LMRoman10-Regular;writing-mode:lr-tb;fill:#000000;fill-opacity:1;fill-rule:nonzero;stroke:none"
       transform="scale(1,-1)"
       x="104.57408"
       y="-24.155163"><tspan
         id="tspan334"
         sodipodi:role="line"
         y="-24.155163"
         x="104.57408 110.42016">10</tspan></text>
<g
       transform="translate(0,248.24794)"
       id="g338"><path
         inkscape:connector-curvature="0"
         id="path340"
         style="fill:none;stroke:#000000;stroke-width:0.5;stroke-linecap:butt;stroke-linejoin:round;stroke-miterlimit:10;stroke-dasharray:none;stroke-opacity:1"
         d="m 177.387,-212.562 v 4" /></g><g
       transform="translate(0,248.24794)"
       id="g342"><path
         inkscape:connector-curvature="0"
         id="path344"
         style="fill:none;stroke:#000000;stroke-width:0.5;stroke-linecap:butt;stroke-linejoin:round;stroke-miterlimit:10;stroke-dasharray:none;stroke-opacity:1"
         d="m 177.387,-10.965 v -4" /></g><text
       id="text348"
       style="font-variant:normal;font-weight:normal;font-size:11.95516682px;font-family:'LM Roman 10';-inkscape-font-specification:LMRoman10-Regular;writing-mode:lr-tb;fill:#000000;fill-opacity:1;fill-rule:nonzero;stroke:none"
       transform="scale(1,-1)"
       x="171.53407"
       y="-24.155163"><tspan
         id="tspan346"
         sodipodi:role="line"
         y="-24.155163"
         x="171.53407 177.38016">20</tspan></text>
<g
       transform="translate(0,248.24794)"
       id="g350"><path
         inkscape:connector-curvature="0"
         id="path352"
         style="fill:none;stroke:#000000;stroke-width:0.5;stroke-linecap:butt;stroke-linejoin:round;stroke-miterlimit:10;stroke-dasharray:none;stroke-opacity:1"
         d="m 244.348,-212.562 v 4" /></g><g
       transform="translate(0,248.24794)"
       id="g354"><path
         inkscape:connector-curvature="0"
         id="path356"
         style="fill:none;stroke:#000000;stroke-width:0.5;stroke-linecap:butt;stroke-linejoin:round;stroke-miterlimit:10;stroke-dasharray:none;stroke-opacity:1"
         d="m 244.348,-10.965 v -4" /></g><text
       id="text360"
       style="font-variant:normal;font-weight:normal;font-size:11.95516682px;font-family:'LM Roman 10';-inkscape-font-specification:LMRoman10-Regular;writing-mode:lr-tb;fill:#000000;fill-opacity:1;fill-rule:nonzero;stroke:none"
       transform="scale(1,-1)"
       x="238.49406"
       y="-24.155163"><tspan
         id="tspan358"
         sodipodi:role="line"
         y="-24.155163"
         x="238.49406 244.34015">30</tspan></text>
<g
       transform="translate(0,248.24794)"
       id="g362"><path
         inkscape:connector-curvature="0"
         id="path364"
         style="fill:none;stroke:#000000;stroke-width:0.5;stroke-linecap:butt;stroke-linejoin:round;stroke-miterlimit:10;stroke-dasharray:none;stroke-opacity:1"
         d="m 311.309,-212.562 v 4" /></g><g
       transform="translate(0,248.24794)"
       id="g366"><path
         inkscape:connector-curvature="0"
         id="path368"
         style="fill:none;stroke:#000000;stroke-width:0.5;stroke-linecap:butt;stroke-linejoin:round;stroke-miterlimit:10;stroke-dasharray:none;stroke-opacity:1"
         d="m 311.309,-10.965 v -4" /></g><text
       id="text372"
       style="font-variant:normal;font-weight:normal;font-size:11.95516682px;font-family:'LM Roman 10';-inkscape-font-specification:LMRoman10-Regular;writing-mode:lr-tb;fill:#000000;fill-opacity:1;fill-rule:nonzero;stroke:none"
       transform="scale(1,-1)"
       x="305.45407"
       y="-24.155163"><tspan
         id="tspan370"
         sodipodi:role="line"
         y="-24.155163"
         x="305.45407 311.30014">40</tspan></text>
<g
       transform="translate(0,248.24794)"
       id="g374"><path
         inkscape:connector-curvature="0"
         id="path376"
         style="fill:none;stroke:#000000;stroke-width:0.5;stroke-linecap:butt;stroke-linejoin:round;stroke-miterlimit:10;stroke-dasharray:none;stroke-opacity:1"
         d="m 378.266,-212.562 v 4" /></g><g
       transform="translate(0,248.24794)"
       id="g378"><path
         inkscape:connector-curvature="0"
         id="path380"
         style="fill:none;stroke:#000000;stroke-width:0.5;stroke-linecap:butt;stroke-linejoin:round;stroke-miterlimit:10;stroke-dasharray:none;stroke-opacity:1"
         d="m 378.266,-10.965 v -4" /></g><text
       id="text384"
       style="font-variant:normal;font-weight:normal;font-size:11.95516682px;font-family:'LM Roman 10';-inkscape-font-specification:LMRoman10-Regular;writing-mode:lr-tb;fill:#000000;fill-opacity:1;fill-rule:nonzero;stroke:none"
       transform="scale(1,-1)"
       x="372.41406"
       y="-24.155163"><tspan
         id="tspan382"
         sodipodi:role="line"
         y="-24.155163"
         x="372.41406 378.26013">50</tspan></text>
<g
       transform="translate(0,248.24794)"
       id="g406"><path
         inkscape:connector-curvature="0"
         id="path408"
         style="fill:none;stroke:#000000;stroke-width:0.5;stroke-linecap:butt;stroke-linejoin:round;stroke-miterlimit:10;stroke-dasharray:none;stroke-opacity:1"
         d="m 43.469,-212.562 h 4" /></g><g
       transform="translate(0,248.24794)"
       id="g410"><path
         inkscape:connector-curvature="0"
         id="path412"
         style="fill:none;stroke:#000000;stroke-width:0.5;stroke-linecap:butt;stroke-linejoin:round;stroke-miterlimit:10;stroke-dasharray:none;stroke-opacity:1"
         d="m 378.266,-212.562 h -4" /></g><text
       id="text416"
       style="font-variant:normal;font-weight:normal;font-size:11.95516682px;font-family:'LM Roman 10';-inkscape-font-specification:LMRoman10-Regular;writing-mode:lr-tb;fill:#000000;fill-opacity:1;fill-rule:nonzero;stroke:none"
       transform="scale(1,-1)"
       x="24.509384"
       y="-31.91942"><tspan
         id="tspan414"
         y="-31.91942"
         x="24.509384">0</tspan></text>
<text
       id="text420"
       style="font-style:oblique;font-variant:normal;font-size:11.95516682px;font-family:'DejaVu Sans';-inkscape-font-specification:DejaVuSans-Oblique;writing-mode:lr-tb;fill:#000000;fill-opacity:1;fill-rule:nonzero;stroke:none"
       transform="scale(1,-1)"
       x="30.367416"
       y="-31.91942"><tspan
         id="tspan418"
         y="-31.91942"
         x="30.367416">.</tspan></text>
<text
       id="text424"
       style="font-variant:normal;font-weight:normal;font-size:11.95516682px;font-family:'LM Roman 10';-inkscape-font-specification:LMRoman10-Regular;writing-mode:lr-tb;fill:#000000;fill-opacity:1;fill-rule:nonzero;stroke:none"
       transform="scale(1,-1)"
       x="33.607265"
       y="-31.91942"><tspan
         id="tspan422"
         y="-31.91942"
         x="33.607265">0</tspan></text>
<g
       transform="translate(0,248.24794)"
       id="g426"><path
         inkscape:connector-curvature="0"
         id="path428"
         style="fill:none;stroke:#000000;stroke-width:0.5;stroke-linecap:butt;stroke-linejoin:round;stroke-miterlimit:10;stroke-dasharray:none;stroke-opacity:1"
         d="m 43.469,-178.965 h 4" /></g><g
       transform="translate(0,248.24794)"
       id="g430"><path
         inkscape:connector-curvature="0"
         id="path432"
         style="fill:none;stroke:#000000;stroke-width:0.5;stroke-linecap:butt;stroke-linejoin:round;stroke-miterlimit:10;stroke-dasharray:none;stroke-opacity:1"
         d="m 378.266,-178.965 h -4" /></g><text
       id="text436"
       style="font-variant:normal;font-weight:normal;font-size:11.95516682px;font-family:'LM Roman 10';-inkscape-font-specification:LMRoman10-Regular;writing-mode:lr-tb;fill:#000000;fill-opacity:1;fill-rule:nonzero;stroke:none"
       transform="scale(1,-1)"
       x="24.509384"
       y="-65.519417"><tspan
         id="tspan434"
         y="-65.519417"
         x="24.509384">0</tspan></text>
<text
       id="text440"
       style="font-style:oblique;font-variant:normal;font-size:11.95516682px;font-family:'DejaVu Sans';-inkscape-font-specification:DejaVuSans-Oblique;writing-mode:lr-tb;fill:#000000;fill-opacity:1;fill-rule:nonzero;stroke:none"
       transform="scale(1,-1)"
       x="30.367416"
       y="-65.519417"><tspan
         id="tspan438"
         y="-65.519417"
         x="30.367416">.</tspan></text>
<text
       id="text444"
       style="font-variant:normal;font-weight:normal;font-size:11.95516682px;font-family:'LM Roman 10';-inkscape-font-specification:LMRoman10-Regular;writing-mode:lr-tb;fill:#000000;fill-opacity:1;fill-rule:nonzero;stroke:none"
       transform="scale(1,-1)"
       x="33.607265"
       y="-65.519417"><tspan
         id="tspan442"
         y="-65.519417"
         x="33.607265">5</tspan></text>
<g
       transform="translate(0,248.24794)"
       id="g446"><path
         inkscape:connector-curvature="0"
         id="path448"
         style="fill:none;stroke:#000000;stroke-width:0.5;stroke-linecap:butt;stroke-linejoin:round;stroke-miterlimit:10;stroke-dasharray:none;stroke-opacity:1"
         d="m 43.469,-145.363 h 4" /></g><g
       transform="translate(0,248.24794)"
       id="g450"><path
         inkscape:connector-curvature="0"
         id="path452"
         style="fill:none;stroke:#000000;stroke-width:0.5;stroke-linecap:butt;stroke-linejoin:round;stroke-miterlimit:10;stroke-dasharray:none;stroke-opacity:1"
         d="m 378.266,-145.363 h -4" /></g><text
       id="text456"
       style="font-variant:normal;font-weight:normal;font-size:11.95516682px;font-family:'LM Roman 10';-inkscape-font-specification:LMRoman10-Regular;writing-mode:lr-tb;fill:#000000;fill-opacity:1;fill-rule:nonzero;stroke:none"
       transform="scale(1,-1)"
       x="24.509384"
       y="-99.119415"><tspan
         id="tspan454"
         y="-99.119415"
         x="24.509384">1</tspan></text>
<text
       id="text460"
       style="font-style:oblique;font-variant:normal;font-size:11.95516682px;font-family:'DejaVu Sans';-inkscape-font-specification:DejaVuSans-Oblique;writing-mode:lr-tb;fill:#000000;fill-opacity:1;fill-rule:nonzero;stroke:none"
       transform="scale(1,-1)"
       x="30.367416"
       y="-99.119415"><tspan
         id="tspan458"
         y="-99.119415"
         x="30.367416">.</tspan></text>
<text
       id="text464"
       style="font-variant:normal;font-weight:normal;font-size:11.95516682px;font-family:'LM Roman 10';-inkscape-font-specification:LMRoman10-Regular;writing-mode:lr-tb;fill:#000000;fill-opacity:1;fill-rule:nonzero;stroke:none"
       transform="scale(1,-1)"
       x="33.607265"
       y="-99.119415"><tspan
         id="tspan462"
         y="-99.119415"
         x="33.607265">0</tspan></text>
<g
       transform="translate(0,248.24794)"
       id="g466"><path
         inkscape:connector-curvature="0"
         id="path468"
         style="fill:none;stroke:#000000;stroke-width:0.5;stroke-linecap:butt;stroke-linejoin:round;stroke-miterlimit:10;stroke-dasharray:none;stroke-opacity:1"
         d="m 43.469,-111.766 h 4" /></g><g
       transform="translate(0,248.24794)"
       id="g470"><path
         inkscape:connector-curvature="0"
         id="path472"
         style="fill:none;stroke:#000000;stroke-width:0.5;stroke-linecap:butt;stroke-linejoin:round;stroke-miterlimit:10;stroke-dasharray:none;stroke-opacity:1"
         d="m 378.266,-111.766 h -4" /></g><text
       id="text476"
       style="font-variant:normal;font-weight:normal;font-size:11.95516682px;font-family:'LM Roman 10';-inkscape-font-specification:LMRoman10-Regular;writing-mode:lr-tb;fill:#000000;fill-opacity:1;fill-rule:nonzero;stroke:none"
       transform="scale(1,-1)"
       x="24.509384"
       y="-132.71942"><tspan
         id="tspan474"
         y="-132.71942"
         x="24.509384">1</tspan></text>
<text
       id="text480"
       style="font-style:oblique;font-variant:normal;font-size:11.95516682px;font-family:'DejaVu Sans';-inkscape-font-specification:DejaVuSans-Oblique;writing-mode:lr-tb;fill:#000000;fill-opacity:1;fill-rule:nonzero;stroke:none"
       transform="scale(1,-1)"
       x="30.367416"
       y="-132.71942"><tspan
         id="tspan478"
         y="-132.71942"
         x="30.367416">.</tspan></text>
<text
       id="text484"
       style="font-variant:normal;font-weight:normal;font-size:11.95516682px;font-family:'LM Roman 10';-inkscape-font-specification:LMRoman10-Regular;writing-mode:lr-tb;fill:#000000;fill-opacity:1;fill-rule:nonzero;stroke:none"
       transform="scale(1,-1)"
       x="33.607265"
       y="-132.71942"><tspan
         id="tspan482"
         y="-132.71942"
         x="33.607265">5</tspan></text>
<g
       transform="translate(0,248.24794)"
       id="g486"><path
         inkscape:connector-curvature="0"
         id="path488"
         style="fill:none;stroke:#000000;stroke-width:0.5;stroke-linecap:butt;stroke-linejoin:round;stroke-miterlimit:10;stroke-dasharray:none;stroke-opacity:1"
         d="m 43.469,-78.164 h 4" /></g><g
       transform="translate(0,248.24794)"
       id="g490"><path
         inkscape:connector-curvature="0"
         id="path492"
         style="fill:none;stroke:#000000;stroke-width:0.5;stroke-linecap:butt;stroke-linejoin:round;stroke-miterlimit:10;stroke-dasharray:none;stroke-opacity:1"
         d="m 378.266,-78.164 h -4" /></g><text
       id="text496"
       style="font-variant:normal;font-weight:normal;font-size:11.95516682px;font-family:'LM Roman 10';-inkscape-font-specification:LMRoman10-Regular;writing-mode:lr-tb;fill:#000000;fill-opacity:1;fill-rule:nonzero;stroke:none"
       transform="scale(1,-1)"
       x="24.509384"
       y="-166.31943"><tspan
         id="tspan494"
         y="-166.31943"
         x="24.509384">2</tspan></text>
<text
       id="text500"
       style="font-style:oblique;font-variant:normal;font-size:11.95516682px;font-family:'DejaVu Sans';-inkscape-font-specification:DejaVuSans-Oblique;writing-mode:lr-tb;fill:#000000;fill-opacity:1;fill-rule:nonzero;stroke:none"
       transform="scale(1,-1)"
       x="30.367416"
       y="-166.31943"><tspan
         id="tspan498"
         y="-166.31943"
         x="30.367416">.</tspan></text>
<text
       id="text504"
       style="font-variant:normal;font-weight:normal;font-size:11.95516682px;font-family:'LM Roman 10';-inkscape-font-specification:LMRoman10-Regular;writing-mode:lr-tb;fill:#000000;fill-opacity:1;fill-rule:nonzero;stroke:none"
       transform="scale(1,-1)"
       x="33.607265"
       y="-166.31943"><tspan
         id="tspan502"
         y="-166.31943"
         x="33.607265">0</tspan></text>
<g
       transform="translate(0,248.24794)"
       id="g506"><path
         inkscape:connector-curvature="0"
         id="path508"
         style="fill:none;stroke:#000000;stroke-width:0.5;stroke-linecap:butt;stroke-linejoin:round;stroke-miterlimit:10;stroke-dasharray:none;stroke-opacity:1"
         d="m 43.469,-44.562 h 4" /></g><g
       transform="translate(0,248.24794)"
       id="g510"><path
         inkscape:connector-curvature="0"
         id="path512"
         style="fill:none;stroke:#000000;stroke-width:0.5;stroke-linecap:butt;stroke-linejoin:round;stroke-miterlimit:10;stroke-dasharray:none;stroke-opacity:1"
         d="m 378.266,-44.562 h -4" /></g><text
       id="text516"
       style="font-variant:normal;font-weight:normal;font-size:11.95516682px;font-family:'LM Roman 10';-inkscape-font-specification:LMRoman10-Regular;writing-mode:lr-tb;fill:#000000;fill-opacity:1;fill-rule:nonzero;stroke:none"
       transform="scale(1,-1)"
       x="24.509384"
       y="-199.91942"><tspan
         id="tspan514"
         y="-199.91942"
         x="24.509384">2</tspan></text>
<text
       id="text520"
       style="font-style:oblique;font-variant:normal;font-size:11.95516682px;font-family:'DejaVu Sans';-inkscape-font-specification:DejaVuSans-Oblique;writing-mode:lr-tb;fill:#000000;fill-opacity:1;fill-rule:nonzero;stroke:none"
       transform="scale(1,-1)"
       x="30.367416"
       y="-199.91942"><tspan
         id="tspan518"
         y="-199.91942"
         x="30.367416">.</tspan></text>
<text
       id="text524"
       style="font-variant:normal;font-weight:normal;font-size:11.95516682px;font-family:'LM Roman 10';-inkscape-font-specification:LMRoman10-Regular;writing-mode:lr-tb;fill:#000000;fill-opacity:1;fill-rule:nonzero;stroke:none"
       transform="scale(1,-1)"
       x="33.607265"
       y="-199.91942"><tspan
         id="tspan522"
         y="-199.91942"
         x="33.607265">5</tspan></text>
<g
       transform="translate(0,248.24794)"
       id="g526"><path
         inkscape:connector-curvature="0"
         id="path528"
         style="fill:none;stroke:#000000;stroke-width:0.5;stroke-linecap:butt;stroke-linejoin:round;stroke-miterlimit:10;stroke-dasharray:none;stroke-opacity:1"
         d="m 43.469,-10.965 h 4" /></g><g
       transform="translate(0,248.24794)"
       id="g530"><path
         inkscape:connector-curvature="0"
         id="path532"
         style="fill:none;stroke:#000000;stroke-width:0.5;stroke-linecap:butt;stroke-linejoin:round;stroke-miterlimit:10;stroke-dasharray:none;stroke-opacity:1"
         d="m 378.266,-10.965 h -4" /></g><text
       id="text536"
       style="font-variant:normal;font-weight:normal;font-size:11.95516682px;font-family:'LM Roman 10';-inkscape-font-specification:LMRoman10-Regular;writing-mode:lr-tb;fill:#000000;fill-opacity:1;fill-rule:nonzero;stroke:none"
       transform="scale(1,-1)"
       x="24.509384"
       y="-233.51942"><tspan
         id="tspan534"
         y="-233.51942"
         x="24.509384">3</tspan></text>
<text
       id="text540"
       style="font-style:oblique;font-variant:normal;font-size:11.95516682px;font-family:'DejaVu Sans';-inkscape-font-specification:DejaVuSans-Oblique;writing-mode:lr-tb;fill:#000000;fill-opacity:1;fill-rule:nonzero;stroke:none"
       transform="scale(1,-1)"
       x="30.367416"
       y="-233.51942"><tspan
         id="tspan538"
         y="-233.51942"
         x="30.367416">.</tspan></text>
<text
       id="text544"
       style="font-variant:normal;font-weight:normal;font-size:11.95516682px;font-family:'LM Roman 10';-inkscape-font-specification:LMRoman10-Regular;writing-mode:lr-tb;fill:#000000;fill-opacity:1;fill-rule:nonzero;stroke:none"
       transform="scale(1,-1)"
       x="33.607265"
       y="-233.51942"><tspan
         id="tspan542"
         y="-233.51942"
         x="33.607265">0</tspan></text>
<g
       transform="translate(0,248.24794)"
       id="g562"><path
         inkscape:connector-curvature="0"
         id="path564"
         style="fill:none;stroke:#000000;stroke-width:1;stroke-linecap:square;stroke-linejoin:round;stroke-miterlimit:10;stroke-dasharray:none;stroke-opacity:1"
         d="M 43.469,-10.965 H 378.266" /></g><g
       transform="translate(0,248.24794)"
       id="g566"><path
         inkscape:connector-curvature="0"
         id="path568"
         style="fill:none;stroke:#000000;stroke-width:1;stroke-linecap:square;stroke-linejoin:round;stroke-miterlimit:10;stroke-dasharray:none;stroke-opacity:1"
         d="M 378.266,-212.562 V -10.965" /></g><g
       transform="translate(0,248.24794)"
       id="g570"><path
         inkscape:connector-curvature="0"
         id="path572"
         style="fill:none;stroke:#000000;stroke-width:1;stroke-linecap:square;stroke-linejoin:round;stroke-miterlimit:10;stroke-dasharray:none;stroke-opacity:1"
         d="M 43.469,-212.562 H 378.266" /></g><g
       transform="translate(0,248.24794)"
       id="g574"><path
         inkscape:connector-curvature="0"
         id="path576"
         style="fill:none;stroke:#000000;stroke-width:1;stroke-linecap:square;stroke-linejoin:round;stroke-miterlimit:10;stroke-dasharray:none;stroke-opacity:1"
         d="M 43.469,-212.562 V -10.965" /></g><g
       transform="translate(0,248.24794)"
       id="g578"><path
         inkscape:connector-curvature="0"
         id="path580"
         style="fill:#ffffff;fill-opacity:1;fill-rule:nonzero;stroke:#000000;stroke-width:1;stroke-linecap:square;stroke-linejoin:round;stroke-miterlimit:10;stroke-dasharray:none;stroke-opacity:1"
         d="m 218.391,-161.871 h 154.875 v -45.691 H 218.391 Z" /></g><g
       id="g582"><g
         id="g584"
         clip-path="url(#clipPath588)"><g
           id="g590"
           transform="translate(0,-0.75206)"><g
             id="g592"><g
               id="g594"
               clip-path="url(#clipPath598)"><g
                 id="g600"><g
                   id="g602"
                   transform="translate(0,249)"><path
                     d="m 225.391,-172.371 c 0.797,0 1.558,0.316 2.125,0.879 0.562,0.562 0.875,1.328 0.875,2.121 0,0.797 -0.313,1.559 -0.875,2.121 -0.567,0.566 -1.328,0.879 -2.125,0.879 -0.793,0 -1.559,-0.313 -2.121,-0.879 -0.563,-0.562 -0.879,-1.324 -0.879,-2.121 0,-0.793 0.316,-1.559 0.879,-2.121 0.562,-0.563 1.328,-0.879 2.121,-0.879 z"
                     style="fill:#008000;fill-opacity:1;fill-rule:nonzero;stroke:#000000;stroke-width:0.5;stroke-linecap:butt;stroke-linejoin:round;stroke-miterlimit:10;stroke-dasharray:none;stroke-opacity:1"
                     id="path604"
                     inkscape:connector-curvature="0" /></g></g></g></g></g></g></g><g
       id="g606"><g
         id="g608"
         clip-path="url(#clipPath612)"><g
           id="g614"
           transform="translate(0,-0.75206)"><g
             id="g616"><g
               id="g618"
               clip-path="url(#clipPath622)"><g
                 id="g624"><g
                   id="g626"
                   transform="translate(0,249)"><path
                     d="m 239.391,-172.371 c 0.797,0 1.558,0.316 2.125,0.879 0.562,0.562 0.875,1.328 0.875,2.121 0,0.797 -0.313,1.559 -0.875,2.121 -0.567,0.566 -1.328,0.879 -2.125,0.879 -0.793,0 -1.559,-0.313 -2.121,-0.879 -0.563,-0.562 -0.879,-1.324 -0.879,-2.121 0,-0.793 0.316,-1.559 0.879,-2.121 0.562,-0.563 1.328,-0.879 2.121,-0.879 z"
                     style="fill:#008000;fill-opacity:1;fill-rule:nonzero;stroke:#000000;stroke-width:0.5;stroke-linecap:butt;stroke-linejoin:round;stroke-miterlimit:10;stroke-dasharray:none;stroke-opacity:1"
                     id="path628"
                     inkscape:connector-curvature="0" /></g></g></g></g></g></g></g><g
       transform="translate(0,248.24794)"
       id="g652"><path
         inkscape:connector-curvature="0"
         id="path654"
         style="fill:none;stroke:#008000;stroke-width:1;stroke-linecap:butt;stroke-linejoin:round;stroke-miterlimit:10;stroke-dasharray:1, 3;stroke-dashoffset:0;stroke-opacity:1"
         d="m 225.391,-183.602 h 14" /></g><g
       transform="translate(0,248.24794)"
       id="g676"><path
         inkscape:connector-curvature="0"
         id="path678"
         style="fill:none;stroke:#008000;stroke-width:1;stroke-linecap:square;stroke-linejoin:round;stroke-miterlimit:10;stroke-dasharray:none;stroke-opacity:1"
         d="m 225.391,-197.832 h 14" /></g><text
       xml:space="preserve"
       style="font-style:normal;font-variant:normal;font-weight:500;font-stretch:normal;font-size:12.61150742px;line-height:125%;font-family:'URW Palladio L';-inkscape-font-specification:'URW Palladio L Medium';letter-spacing:0px;word-spacing:0px;fill:#000000;fill-opacity:1;stroke:none;stroke-width:0.75px;stroke-linecap:butt;stroke-linejoin:miter;stroke-opacity:1"
       x="248.9174"
       y="-74.840103"
       id="text4128"
       sodipodi:linespacing="125%"
       transform="scale(1,-1)"><tspan
         sodipodi:role="line"
         id="tspan4126"
         x="248.9174"
         y="-74.840103"
         style="font-size:12.61150742px;stroke-width:0.75px">FDTD <tspan
   style="font-style:italic;stroke-width:0.75px"
   id="tspan4130">a</tspan> = 100 μm</tspan></text>
<text
       transform="scale(1,-1)"
       sodipodi:linespacing="125%"
       id="text4136"
       y="-60.288361"
       x="248.9174"
       style="font-style:normal;font-variant:normal;font-weight:500;font-stretch:normal;font-size:12.61150742px;line-height:125%;font-family:'URW Palladio L';-inkscape-font-specification:'URW Palladio L Medium';letter-spacing:0px;word-spacing:0px;fill:#000000;fill-opacity:1;stroke:none;stroke-width:0.75px;stroke-linecap:butt;stroke-linejoin:miter;stroke-opacity:1"
       xml:space="preserve"><tspan
         style="font-size:12.61150742px;stroke-width:0.75px"
         y="-60.288361"
         x="248.9174"
         id="tspan4134"
         sodipodi:role="line">Pendry et al.</tspan></text>
<text
       xml:space="preserve"
       style="font-style:normal;font-variant:normal;font-weight:500;font-stretch:normal;font-size:12.61150742px;line-height:125%;font-family:'URW Palladio L';-inkscape-font-specification:'URW Palladio L Medium';letter-spacing:0px;word-spacing:0px;fill:#000000;fill-opacity:1;stroke:none;stroke-width:0.75px;stroke-linecap:butt;stroke-linejoin:miter;stroke-opacity:1"
       x="248.9174"
       y="-45.736626"
       id="text4140"
       sodipodi:linespacing="125%"
       transform="scale(1,-1)"><tspan
         sodipodi:role="line"
         id="tspan4138"
         x="248.9174"
         y="-45.736626"
         style="font-size:12.61150742px;stroke-width:0.75px">Maslovski et al.</tspan></text>
<text
       transform="matrix(0,1,1,0,0,0)"
       sodipodi:linespacing="125%"
       id="text1734"
       y="13.0425"
       x="61.943558"
       style="font-style:normal;font-variant:normal;font-weight:500;font-stretch:normal;font-size:13px;line-height:125%;font-family:'URW Palladio L';-inkscape-font-specification:'URW Palladio L Medium';letter-spacing:0px;word-spacing:0px;fill:#000000;fill-opacity:1;stroke:none;stroke-width:0.75px;stroke-linecap:butt;stroke-linejoin:miter;stroke-opacity:1"
       xml:space="preserve"
       inkscape:transform-center-x="-1.9542167"
       inkscape:transform-center-y="-11.990661"><tspan
         style="font-size:13px;stroke-width:0.75px"
         y="13.0425"
         x="61.943558"
         id="tspan1732"
         sodipodi:role="line">plasma frequency <tspan
   style="font-style:italic"
   id="tspan326">f<tspan
   style="font-size:8px"
   id="tspan328">p</tspan></tspan> [THz]</tspan></text>
<text
       xml:space="preserve"
       style="font-style:normal;font-variant:normal;font-weight:500;font-stretch:normal;font-size:12.99999905px;line-height:125%;font-family:'URW Palladio L';-inkscape-font-specification:'URW Palladio L Medium';letter-spacing:0px;word-spacing:0px;fill:#000000;fill-opacity:1;stroke:none;stroke-width:0.75px;stroke-linecap:butt;stroke-linejoin:miter;stroke-opacity:1"
       x="157.32654"
       y="-7.4109197"
       id="text4120"
       sodipodi:linespacing="125%"
       transform="scale(1,-1)"><tspan
         sodipodi:role="line"
         id="tspan4118"
         x="157.32654"
         y="-7.4109197"
         style="font-size:12.99999905px;stroke-width:0.75px"
         dy="0 0 0 0 0 0 0 0 0 0 0 0 0 0 -3.0796101"
         dx="0 0 0 0 0 0 0 0 0 0 0 0 0 0 0.46194157">wire radius <tspan
   style="font-style:italic;stroke-width:0.75px"
   id="tspan324">ρ<tspan
   style="font-size:7.99999952px;stroke-width:0.75px"
   id="tspan6021-5"
   dy="3.0796101"
   dx="-0.46194157">w</tspan></tspan> [μm]</tspan></text>
</g></svg>